<svg width="262" height="24" viewBox="0 0 262 24" fill="none" xmlns="http://www.w3.org/2000/svg">
<path d="M36.7959 0.42392L31.831 23.6356H25.8257L30.7911 0.42392H36.7959ZM62.0598 15.412L65.2204 6.69553L67.0393 15.412H62.0598ZM68.7621 23.6356H74.3148L69.4638 0.42392H64.3418C63.1875 0.42392 62.2143 1.09321 61.7836 2.12534L52.7733 23.6356H59.0798L60.3318 20.1691H68.0349L68.7621 23.6356ZM53.086 16.0578C53.1121 9.93183 44.6175 9.59248 44.6744 6.85528C44.6927 6.02362 45.4862 5.13767 47.2205 4.9111C48.0804 4.80042 50.4532 4.71062 53.1429 5.95001L54.1949 1.02586C52.7503 0.503274 50.8912 0 48.5779 0C42.6415 0 38.4655 3.15329 38.4321 7.67232C38.3939 11.0141 41.4151 12.8773 43.6867 13.9904C46.0287 15.128 46.8133 15.8573 46.8018 16.8738C46.7857 18.4311 44.9344 19.1207 43.2105 19.1469C40.1899 19.1938 38.4388 18.3303 37.0434 17.6798L35.9533 22.7684C37.3587 23.4116 39.9481 23.9713 42.6295 24C48.9408 24 53.0672 20.8838 53.086 16.0578ZM28.2152 0.42392L18.4854 23.6356H12.1386L7.3502 5.11105C7.05993 3.9719 6.80673 3.5532 5.92391 3.07185C4.47987 2.2877 2.0961 1.5542 0 1.09791L0.142004 0.42392H10.3599C11.6614 0.42392 12.8324 1.29003 13.1305 2.78941L15.66 16.2222L21.9065 0.42392H28.2152Z" fill="#1434CB"/>
<path d="M102.981 2.56543H92.4807V21.4342H102.981V2.56543Z" fill="#7375CF"/>
<path d="M93.1473 12C93.1456 10.1828 93.5574 8.38904 94.3515 6.75451C95.1456 5.11999 96.3011 3.68753 97.7306 2.5656C95.9603 1.17415 93.8343 0.308825 91.5955 0.0685343C89.3568 -0.171757 87.0955 0.222683 85.0703 1.20677C83.0451 2.19085 81.3376 3.72488 80.143 5.6335C78.9484 7.54213 78.3149 9.74835 78.3149 12C78.3149 14.2516 78.9484 16.4579 80.143 18.3665C81.3376 20.2751 83.0451 21.8091 85.0703 22.7932C87.0955 23.7773 89.3568 24.1718 91.5955 23.9315C93.8343 23.6912 95.9603 22.8259 97.7306 21.4344C96.3011 20.3125 95.1456 18.88 94.3515 17.2455C93.5574 15.611 93.1456 13.8172 93.1473 12V12Z" fill="#EB001B"/>
<path d="M116.001 19.4357V19.0494H116.157V18.9707H115.76V19.0494H115.916V19.4357H116.001ZM116.771 19.4357V18.97H116.65L116.51 19.2903L116.37 18.97H116.248V19.4357H116.334V19.0844L116.465 19.3873H116.554L116.685 19.0836V19.4357H116.771Z" fill="#00A2E5"/>
<path d="M117.146 12C117.146 14.2516 116.512 16.4578 115.318 18.3665C114.123 20.2751 112.416 21.8091 110.391 22.7932C108.366 23.7773 106.104 24.1717 103.866 23.9315C101.627 23.6912 99.5009 22.8258 97.7307 21.4344C99.159 20.3113 100.314 18.8786 101.108 17.2444C101.901 15.6101 102.314 13.8169 102.314 12C102.314 10.1831 101.901 8.38989 101.108 6.75562C100.314 5.12135 99.159 3.68866 97.7307 2.5656C99.5009 1.17414 101.627 0.30882 103.866 0.0685322C106.104 -0.171756 108.366 0.222691 110.391 1.20679C112.416 2.19088 114.123 3.72491 115.318 5.63354C116.512 7.54217 117.146 9.74838 117.146 12V12Z" fill="#00A2E5"/>
<path fill-rule="evenodd" clip-rule="evenodd" d="M186.826 13.2478H183.409C182.378 13.2478 181.629 13.494 181.099 13.8767V13.2478H176.045C175.237 13.2478 174.289 13.4475 173.84 13.8767V13.2478H164.816V13.8767C164.098 13.3602 162.886 13.2478 162.327 13.2478H156.374V13.8767C155.806 13.3282 154.542 13.2478 153.772 13.2478H147.111L145.586 14.8926L144.158 13.2478H134.207V23.9946H143.971L145.542 22.3238L147.022 23.9946L153.04 23.9999V21.4719H153.632C154.43 21.4842 155.372 21.4521 156.203 21.094V23.9943H161.167V21.1934H161.407C161.712 21.1934 161.743 21.2059 161.743 21.5104V23.9941H176.823C177.78 23.9941 178.781 23.7498 179.335 23.3064V23.9941H184.119C185.114 23.9941 186.086 23.855 186.826 23.4987C186.826 -35.3002 186.826 37.8666 186.826 13.2478Z" fill="#006FCF"/>
<path fill-rule="evenodd" clip-rule="evenodd" d="M124.3 10.7393L125.011 9.02903H126.604L127.313 10.7393H133.519V9.43176L134.073 10.7449H137.295L137.849 9.41225V10.7393H153.272L153.265 7.93188H153.563C153.772 7.93908 153.833 7.95835 153.833 8.30232V10.7393H161.81V10.0858C162.454 10.4295 163.454 10.7393 164.771 10.7393H168.127L168.845 9.02903H170.438L171.14 10.7393H177.607V9.11474L178.586 10.7393H183.769V0H178.64V1.26833L177.922 0H172.659V1.26833L172 0H164.891C163.701 0 162.655 0.165596 161.81 0.627081V0H156.905V0.627081C156.367 0.151428 155.634 0 154.82 0H136.898L135.696 2.77379L134.461 0H128.816V1.26833L128.196 0H123.381L121.146 5.10606V10.7393H124.3Z" fill="#006FCF"/>
<path fill-rule="evenodd" clip-rule="evenodd" d="M153.714 19.8872C155.327 19.8872 156.928 19.4454 156.928 17.3059C156.928 15.1729 155.282 14.7686 153.817 14.7686H147.918L145.57 17.2931L143.299 14.7686H135.874V22.4705H143.186L145.549 19.9208L147.822 22.4705H151.41V19.8872H153.714ZM151.41 18.323H153.796C154.505 18.323 154.946 17.9721 154.946 17.306C154.946 16.6324 154.484 16.3616 153.817 16.3616H151.41V18.323ZM142.252 20.8655H137.713V19.3331H141.766V17.7616H137.713V16.3614H142.341L144.36 18.6059L142.252 20.8655ZM149.571 21.7701L146.737 18.6328L149.571 15.5952V21.7701Z" fill="white"/>
<path fill-rule="evenodd" clip-rule="evenodd" d="M164.823 19.5379C164.666 19.3135 164.33 19.0425 163.919 18.8913C164.405 18.699 165.227 18.0716 165.227 16.8423C165.227 15.9637 164.861 15.483 164.278 15.132C163.673 14.8097 162.992 14.7686 162.057 14.7686H157.795V22.4705H159.65V19.6575H161.623C162.296 19.6575 162.708 19.7234 162.977 19.9993C163.286 20.3217 163.281 20.9098 163.277 21.362C163.276 21.4122 163.276 21.4606 163.276 21.5069V22.4705H165.129V20.9437C165.122 20.2648 165.084 19.9139 164.823 19.5379ZM162.804 17.9328C162.557 18.0789 162.252 18.0914 161.893 18.0914H159.65V16.3616H161.923C162.252 16.3616 162.581 16.3686 162.804 16.5007C163.043 16.6255 163.186 16.864 163.186 17.1935C163.186 17.5231 163.043 17.7886 162.804 17.9328Z" fill="white"/>
<path d="M179.462 18.4084C179.821 18.7793 180.014 19.2475 180.014 20.0402C180.014 21.6971 178.976 22.4705 177.114 22.4705H173.518V20.819H177.1C177.45 20.819 177.698 20.7727 177.854 20.6283C177.981 20.5091 178.072 20.3361 178.072 20.1259C178.072 19.9016 177.973 19.7234 177.847 19.6166C177.705 19.4991 177.511 19.4456 177.189 19.4456C177.076 19.4418 176.961 19.4387 176.845 19.4355C175.189 19.3906 173.301 19.3395 173.301 17.0618C173.301 15.9447 174.005 14.7688 175.94 14.7688H179.641V16.408H176.255C175.919 16.408 175.701 16.4206 175.515 16.5471C175.313 16.6719 175.238 16.857 175.238 17.1013C175.238 17.3918 175.409 17.5895 175.642 17.675C175.836 17.7425 176.046 17.7623 176.36 17.7623L177.354 17.789C178.356 17.8134 179.044 17.9862 179.462 18.4084Z" fill="white"/>
<path d="M186.826 16.4075H183.461C183.125 16.4075 182.902 16.4201 182.714 16.5467C182.52 16.6714 182.445 16.8565 182.445 17.1008C182.445 17.3914 182.609 17.589 182.848 17.6745C183.043 17.7421 183.252 17.7618 183.56 17.7618L184.56 17.7885C185.57 17.8134 186.244 17.9864 186.655 18.4084C186.718 18.458 186.76 18.5127 186.802 18.5682L186.814 18.5832L186.821 18.5928L186.826 18.5991V21.4853C186.377 22.1391 185.504 22.4705 184.321 22.4705H180.756V20.819H184.306C184.659 20.819 184.905 20.7728 185.053 20.6283C185.182 20.5091 185.272 20.3361 185.272 20.1259C185.272 19.9016 185.182 19.7234 185.046 19.6166C184.912 19.4991 184.717 19.4457 184.396 19.4457C184.282 19.4418 184.167 19.4387 184.051 19.4356C182.389 19.3907 180.5 19.3397 180.5 17.0618C180.5 15.9447 181.211 14.7688 183.149 14.7688H186.826L186.826 16.4075Z" fill="white"/>
<path d="M166.251 14.7686H172.412V16.3613H168.09V17.7616H172.307V19.333H168.09V20.8654L172.412 20.8724V22.4705H166.251V14.7686Z" fill="white"/>
<path fill-rule="evenodd" clip-rule="evenodd" d="M127.066 5.89285L125.803 2.82317L124.546 5.89285H127.066ZM154.902 4.67059C154.648 4.82411 154.348 4.82922 153.988 4.82922H151.746V3.11891H154.019C154.341 3.11891 154.676 3.13331 154.894 3.2578C155.134 3.36997 155.282 3.60873 155.282 3.93853C155.282 4.27506 155.141 4.54587 154.902 4.67059ZM170.9 5.89285L169.623 2.82317L168.352 5.89285H170.9ZM141.078 9.21547H139.185L139.178 3.18481L136.501 9.21547H134.88L132.197 3.17947V9.21547H128.442L127.733 7.49796H123.889L123.172 9.21547H121.167L124.473 1.51538H127.216L130.356 8.80578V1.51538H133.369L135.785 6.73896L138.004 1.51538H141.077V9.21547H141.078ZM148.621 9.21547H142.454V1.51538H148.621V3.11885H144.3V4.50679H148.517V6.08517H144.3V7.62292H148.621V9.21547ZM157.316 3.58916C157.316 4.81685 156.494 5.45113 156.015 5.64157C156.419 5.79486 156.764 6.06567 156.928 6.29002C157.189 6.67301 157.234 7.01511 157.234 7.70281V9.21547H155.372L155.365 8.24442C155.365 7.78108 155.409 7.11475 155.073 6.74431C154.804 6.4735 154.392 6.41474 153.728 6.41474H151.746V9.21547H149.9V1.51538H154.146C155.09 1.51538 155.785 1.54023 156.382 1.8842C156.966 2.22816 157.316 2.73029 157.316 3.58916ZM160.27 9.21547H158.386V1.51538H160.27V9.21547ZM182.123 9.21547H179.507L176.008 3.43611V9.21547H172.248L171.53 7.49796H167.695L166.998 9.21547H164.837C163.94 9.21547 162.804 9.01759 162.161 8.3638C161.512 7.71001 161.174 6.82443 161.174 5.42419C161.174 4.2822 161.376 3.23823 162.169 2.41327C162.766 1.79873 163.701 1.51538 164.973 1.51538H166.76V3.1653H165.011C164.337 3.1653 163.956 3.26517 163.59 3.62144C163.275 3.94567 163.059 4.55858 163.059 5.36566C163.059 6.19062 163.224 6.78542 163.567 7.17397C163.851 7.47869 164.368 7.57112 164.854 7.57112H165.683L168.285 1.51561H171.051L174.176 8.79881V1.51561H176.987L180.232 6.87832V1.51561H182.123V9.21547Z" fill="white"/>
<path fill-rule="evenodd" clip-rule="evenodd" d="M191.329 12.2072C191.329 5.80848 196.516 0.621338 202.914 0.621338C209.313 0.621338 214.5 5.80848 214.5 12.2072C214.5 18.606 209.313 23.7934 202.914 23.7934C196.516 23.7934 191.329 18.606 191.329 12.2072" fill="#FFFFFE"/>
<path fill-rule="evenodd" clip-rule="evenodd" d="M209.921 11.9792C209.916 9.01222 208.062 6.48183 205.448 5.47972V18.4781C208.062 17.4747 209.916 14.9467 209.921 11.9792ZM200.463 18.4756V5.48109C197.852 6.48631 196.001 9.01307 195.994 11.9793C196.001 14.9447 197.852 17.4712 200.463 18.4756ZM202.957 0.992497C196.89 0.994828 191.974 5.91164 191.973 11.9792C191.974 18.046 196.89 22.962 202.957 22.963C209.025 22.962 213.942 18.046 213.943 11.9792C213.942 5.91164 209.025 0.994828 202.957 0.992497ZM202.93 23.9999C196.291 24.0315 190.826 18.6524 190.826 12.1045C190.826 4.9484 196.291 -0.00129446 202.93 2.54058e-07H206.042C212.603 -0.00129446 218.591 4.94607 218.591 12.1045C218.591 18.6501 212.603 23.9999 206.042 23.9999H202.93Z" fill="#0069AA"/>
<path d="M247.257 2.56519H236.757V21.434H247.257V2.56519Z" fill="#FF5F00"/>
<path d="M237.423 12C237.421 10.1828 237.833 8.38904 238.627 6.75451C239.421 5.11999 240.577 3.68753 242.006 2.5656C240.236 1.17415 238.11 0.308825 235.871 0.0685343C233.633 -0.171757 231.371 0.222683 229.346 1.20677C227.321 2.19085 225.613 3.72488 224.419 5.6335C223.224 7.54213 222.591 9.74835 222.591 12C222.591 14.2516 223.224 16.4579 224.419 18.3665C225.613 20.2751 227.321 21.8091 229.346 22.7932C231.371 23.7773 233.633 24.1718 235.871 23.9315C238.11 23.6912 240.236 22.8259 242.006 21.4344C240.577 20.3125 239.421 18.88 238.627 17.2455C237.833 15.611 237.422 13.8172 237.423 12V12Z" fill="#EB001B"/>
<path d="M261.422 12C261.422 14.2516 260.789 16.4578 259.594 18.3665C258.399 20.2751 256.692 21.8091 254.667 22.7932C252.642 23.7773 250.381 24.1717 248.142 23.9315C245.903 23.6912 243.777 22.8258 242.007 21.4344C243.435 20.3113 244.59 18.8786 245.384 17.2444C246.178 15.6101 246.59 13.8169 246.59 12C246.59 10.1831 246.178 8.38989 245.384 6.75562C244.59 5.12135 243.435 3.68866 242.007 2.5656C243.777 1.17414 245.903 0.30882 248.142 0.0685322C250.381 -0.171756 252.642 0.222691 254.667 1.20679C256.692 2.19088 258.399 3.72491 259.594 5.63354C260.789 7.54217 261.422 9.74838 261.422 12V12Z" fill="#F79E1B"/>
<path d="M260.277 19.4355V19.0492H260.432V18.9705H260.036V19.0492H260.191V19.4355H260.277ZM261.047 19.4355V18.9697H260.925L260.785 19.2901L260.645 18.9697H260.524V19.4355H260.61V19.0842L260.741 19.3871H260.83L260.961 19.0834V19.4355H261.047Z" fill="#F79E1B"/>
</svg>
