<svg width="148" height="24" viewBox="0 0 148 24" fill="none" xmlns="http://www.w3.org/2000/svg">
<path fill-rule="evenodd" clip-rule="evenodd" d="M128.382 0C131.889 0 134.561 0.612412 136.343 1.82387C138.053 2.9908 138.882 4.66101 138.875 6.93695C138.875 8.88108 138.376 10.5246 137.39 11.7761C136.403 13.0277 134.987 13.865 133.172 14.2525L132.35 14.424L135.953 23.9999H128.088L124.609 12.2816L122.46 23.9999H48.3248L51.7543 5.43822H47.3472L43.9222 23.9999H15.7379L10.5335 8.88999L7.86114 23.9999H0L4.42273 0H12.6624L18.0249 14.6979L20.7106 0H68.0111L67.0312 5.43822H59.4596L58.6958 9.64715H65.9734L65.1116 14.3482H57.8273L57.0589 18.5594H69.1936L72.6187 0H80.5466L77.2752 17.6041H82.7045L85.947 0H93.8816L90.6147 17.6041H96.182L99.4289 0H114.608L113.615 5.42708H106.139L105.364 9.62043H112.617L111.755 14.3482H104.497L103.722 18.5594H115.77L119.189 0H128.382ZM25.0532 18.5594H37.0787L39.4972 5.43822H27.4717L26.7501 9.60484H34.2372L33.3798 14.3482H25.8304L25.0532 18.5594ZM126.353 11.2884C127.921 11.2884 129.067 11.019 129.858 10.4667C130.455 10.0569 131.167 9.2463 131.15 7.72975C131.15 6.4782 130.548 5.8168 130.036 5.48498C129.381 5.05741 128.433 4.84807 127.13 4.84807H125.985L124.794 11.2884H126.353Z" fill="#8CB749"/>
<path fill-rule="evenodd" clip-rule="evenodd" d="M142.429 22.4499L142.235 18.6641L143.908 18.5772C144.167 18.554 144.428 18.5751 144.681 18.6396C144.864 18.6979 145.021 18.8174 145.126 18.9781C145.24 19.1438 145.305 19.3384 145.313 19.5393C145.332 19.7897 145.252 20.0375 145.09 20.2296C144.883 20.449 144.606 20.5905 144.306 20.6305C144.417 20.6731 144.521 20.7308 144.616 20.802C144.785 20.943 144.935 21.1054 145.061 21.2852L145.767 22.2784L145.144 22.3118L144.605 21.5502C144.447 21.3275 144.318 21.1627 144.217 21.0492C144.142 20.9558 144.053 20.8746 143.952 20.8086C143.88 20.7665 143.801 20.7364 143.719 20.7196C143.618 20.708 143.517 20.705 143.416 20.7107L142.837 20.7396L142.923 22.4165L142.429 22.4499ZM142.821 20.3165L143.894 20.2608C144.075 20.2585 144.255 20.2254 144.424 20.1628C144.543 20.1169 144.642 20.0311 144.705 19.9201C144.766 19.8164 144.795 19.6973 144.79 19.5771C144.787 19.4934 144.766 19.4113 144.727 19.3369C144.689 19.2625 144.634 19.1977 144.567 19.1473C144.385 19.0248 144.163 18.9741 143.946 19.0048L142.754 19.0649L142.821 20.3165Z" fill="#8CB749"/>
<path fill-rule="evenodd" clip-rule="evenodd" d="M143.536 16.9493C142.602 16.9983 141.726 17.4157 141.1 18.1101C140.473 18.8044 140.148 19.7189 140.195 20.6527C140.219 21.1154 140.334 21.5688 140.533 21.9872C140.732 22.4056 141.011 22.7807 141.355 23.0911C142.049 23.7179 142.965 24.0432 143.899 23.9954C144.362 23.9717 144.815 23.8571 145.233 23.6582C145.652 23.4592 146.027 23.1799 146.337 22.836C146.648 22.4921 146.887 22.0904 147.042 21.6539C147.198 21.2174 147.265 20.7546 147.242 20.292C147.193 19.3576 146.775 18.4808 146.08 17.8541C145.385 17.2274 144.47 16.902 143.536 16.9493ZM140.792 20.6215C140.764 20.2328 140.814 19.8424 140.939 19.4731C141.064 19.1039 141.261 18.7633 141.519 18.4712C141.777 18.1792 142.091 17.9417 142.442 17.7725C142.793 17.6033 143.175 17.506 143.564 17.4861C143.953 17.4663 144.342 17.5243 144.709 17.6568C145.076 17.7894 145.412 17.9937 145.698 18.258C145.985 18.5222 146.216 18.841 146.378 19.1956C146.539 19.5502 146.629 19.9336 146.64 20.3231V20.4723C146.637 21.234 146.337 21.9646 145.805 22.5089C145.272 23.0533 144.548 23.3686 143.786 23.388C143.025 23.4074 142.286 23.1294 141.726 22.6129C141.166 22.0964 140.83 21.3821 140.788 20.6215H140.792Z" fill="#8CB749"/>
</svg>
