<svg width="60" height="24" viewBox="0 0 60 24" fill="none" xmlns="http://www.w3.org/2000/svg">
<path d="M28.3198 11.7002V18.718H26.0737V1.3623H31.9136C33.3361 1.3623 34.6837 1.89052 35.7319 2.87149C36.7801 3.77701 37.3042 5.13527 37.3042 6.569C37.3042 8.00273 36.7801 9.28554 35.7319 10.2665C34.6837 11.2475 33.411 11.7757 31.9136 11.7757L28.3198 11.7002ZM28.3198 3.47517V9.51192H32.0633C32.8869 9.51192 33.7104 9.21008 34.2345 8.60641C35.4324 7.47452 35.4324 5.58803 34.3094 4.45614L34.2345 4.38068C33.6356 3.77701 32.8869 3.39971 32.0633 3.47517H28.3198Z" fill="#5F6368"/>
<path d="M42.4697 6.49341C44.1169 6.49341 45.3896 6.94616 46.3629 7.85168C47.3362 8.75719 47.7855 9.96454 47.7855 11.4737V18.7178H45.6891V17.0577H45.6142C44.7158 18.416 43.443 19.0951 41.9456 19.0951C40.6728 19.0951 39.5498 18.7178 38.6514 17.9632C37.8278 17.2086 37.3037 16.1522 37.3037 15.0203C37.3037 13.813 37.7529 12.832 38.6514 12.0774C39.5498 11.3228 40.8226 11.021 42.32 11.021C43.6676 11.021 44.7158 11.2473 45.5394 11.7756V11.2473C45.5394 10.4928 45.2399 9.73816 44.6409 9.28541C44.042 8.75719 43.2933 8.45535 42.4697 8.45535C41.1969 8.45535 40.2236 8.98357 39.5498 10.04L37.6032 8.83265C38.8011 7.248 40.3734 6.49341 42.4697 6.49341ZM39.6247 15.0958C39.6247 15.6995 39.9242 16.2277 40.3734 16.5295C40.8975 16.9068 41.4964 17.1332 42.0954 17.1332C42.9938 17.1332 43.8922 16.7559 44.5661 16.0768C45.3148 15.3976 45.6891 14.5676 45.6891 13.662C45.0153 13.1338 44.042 12.832 42.7692 12.832C41.8708 12.832 41.1221 13.0584 40.5231 13.5111C39.9241 13.8884 39.6247 14.4166 39.6247 15.0958Z" fill="#5F6368"/>
<path d="M59.9144 6.87061L52.5023 23.9999H50.2563L53.0264 18.0386L48.1599 6.94606H50.5557L54.0746 15.473H54.1495L57.5935 6.94606H59.9144V6.87061Z" fill="#5F6368"/>
<path d="M19.4103 10.191C19.4103 9.51183 19.3354 8.8327 19.2606 8.15356H9.90186V12.002H15.2176C14.993 13.2093 14.3192 14.3412 13.271 15.0204V17.5105H16.4904C18.3621 15.775 19.4103 13.2093 19.4103 10.191Z" fill="#4285F4"/>
<path d="M9.90151 19.9255C12.5968 19.9255 14.8429 19.02 16.49 17.5108L13.2706 15.0206C12.3722 15.6243 11.2492 16.0016 9.90151 16.0016C7.35595 16.0016 5.10986 14.266 4.36116 11.8513H1.06689V14.4169C2.7889 17.8126 6.15803 19.9255 9.90151 19.9255Z" fill="#34A853"/>
<path d="M4.36116 11.8513C3.91194 10.644 3.91194 9.28569 4.36116 8.00288V5.43726H1.06689C-0.355631 8.22925 -0.355631 11.5495 1.06689 14.4169L4.36116 11.8513Z" fill="#FBBC04"/>
<path d="M9.90184 3.92795C11.3244 3.92795 12.672 4.45616 13.7202 5.43714L16.5652 2.56968C14.7684 0.909573 12.3725 -0.0713996 9.97671 0.00405982C6.23323 0.00405982 2.78922 2.11692 1.14209 5.5126L4.43635 8.07821C5.11018 5.66351 7.35627 3.92795 9.90184 3.92795Z" fill="#EA4335"/>
</svg>
