<?xml version="1.0" encoding="UTF-8"?>
<svg width="71px" height="20px" viewBox="0 0 71 20" version="1.1" xmlns="http://www.w3.org/2000/svg" xmlns:xlink="http://www.w3.org/1999/xlink">
    <!-- Generator: Sketch 63.1 (92452) - https://sketch.com -->
    <title>ach_logo_white</title>
    <desc>Created with Sketch.</desc>
    <g id="Page-1" stroke="none" stroke-width="1" fill="none" fill-rule="evenodd">
        <g id="Desktop-HD-Copy-5" transform="translate(-63.000000, -352.000000)" fill="#5C6379">
            <g id="ach_logo_white" transform="translate(63.000000, 352.000000)">
                <g id="noun_Internet-Banking_634436">
                    <path d="M26.6667139,0 C27.3097421,0 27.8944031,0.275629894 28.3161151,0.720323682 C28.7378271,1.16450476 29,1.77929316 29,2.45709418 L29,17.5429068 C29,18.2207078 28.7378275,18.8354919 28.3161151,19.2796773 C27.8944031,19.7238584 27.310228,20 26.6667139,20 L2.33280019,20 C1.689286,20 1.10560104,19.7238588 0.683884912,19.2796773 C0.262172905,18.8354962 0,18.2207078 0,17.5429068 L0,2.45709418 C0,1.78134052 0.262172493,1.16655646 0.684860926,0.721347361 C1.10560012,0.276141638 1.68928921,0 2.3328034,0 L26.6667139,0 Z M20.3996951,8.57595824 L9.35318535,8.57595824 C9.04738557,8.57595824 8.80050817,8.85170818 8.80050817,9.19227002 C8.80050817,9.53224372 9.04738707,9.80799316 9.35318535,9.80799316 L9.54703542,9.80799316 L9.54703542,14.7620686 L9.3920735,14.7620686 C9.05033234,14.7620686 8.7734026,15.0389968 8.7734026,15.3813286 C8.7734026,15.7230703 9.04974169,16 9.39207399,16 L20.21704,16 C20.5587816,16 20.8357114,15.7230718 20.8357114,15.3813286 C20.8357114,15.039587 20.5587831,14.7620686 20.21704,14.7620686 L20.062078,14.7620686 L20.062078,9.80799316 L20.3996951,9.80799316 C20.7049057,9.80799316 20.9523723,9.53283237 20.9523723,9.19227002 C20.9517831,8.85170668 20.7049042,8.57595824 20.3996951,8.57595824 Z M12.6392096,9.80799316 L12.6392096,14.7620686 L10.7837891,14.7620686 L10.7837891,9.80799316 L12.6392096,9.80799316 Z M15.7313793,9.80799316 L15.7313793,14.7620686 L13.8759587,14.7620686 L13.8759587,9.80799316 L15.7313793,9.80799316 Z M18.8247313,9.80799316 L18.8247313,14.7620686 L16.9693107,14.7620686 L16.9693107,9.80799316 L18.8247313,9.80799316 Z M14.551193,4.05435468 L8.36507768,6.83836847 C8.09816555,6.95738902 7.95263109,7.24727965 8.01390857,7.53186889 C8.07518656,7.81704628 8.32677869,8.02032381 8.61843728,8.02032381 L20.9959563,8.02032381 L20.9959563,8.02032381 C21.3382871,8.02032381 21.6146277,7.74398372 21.6146277,7.40165142 C21.6146277,7.13002606 21.4396326,6.89964346 21.1968782,6.81597963 L15.0585038,4.05435468 C14.8970602,3.98188177 14.7132273,3.98188177 14.551193,4.05435468 Z" id="Combined-Shape" style="fill: #BABA88;"></path>
                </g>
                <path d="M48.12,17 L48.12,14.52 L42.7,14.52 L42.7,11.52 L47.14,11.52 L47.14,9.06 L42.7,9.06 L42.7,6.44 L47.92,6.44 L47.92,3.96 L39.76,3.96 L39.76,17 L48.12,17 Z M53.66,17 L53.66,11.94 L58.18,11.94 L58.18,9.46 L53.66,9.46 L53.66,6.44 L58.94,6.44 L58.94,3.96 L50.72,3.96 L50.72,17 L53.66,17 Z M66.7,17 L66.7,6.44 L70.28,6.44 L70.28,3.96 L60.16,3.96 L60.16,6.44 L63.74,6.44 L63.74,17 L66.7,17 Z" id="EFT" fill-rule="nonzero"></path>
            </g>
        </g>
    </g>
</svg>