<svg width="52" height="26" viewBox="0 0 52 26" fill="none" xmlns="http://www.w3.org/2000/svg">
<path fill-rule="evenodd" clip-rule="evenodd" d="M3.04009 20.7358V16.8142H6.42685C9.89356 16.7739 11.6466 14.6147 11.6466 11.8437C11.6466 9.17012 9.91321 6.87317 6.42685 6.87317H0V20.7358H3.04009ZM6.4225 13.9822H3.03574V9.80551H6.4225C7.86088 9.80551 8.60212 10.7977 8.60212 11.9038C8.60212 13.0099 7.88465 13.9822 6.4225 13.9822Z" fill="#1D1934"/>
<path d="M16.0038 6.89294V20.7353H13.2188V6.89294H16.0038Z" fill="#1D1934"/>
<path fill-rule="evenodd" clip-rule="evenodd" d="M28.349 10.972H25.7193L25.6276 12.1051C25.1214 11.2341 23.9887 10.7601 22.7826 10.7601C19.9375 10.718 17.7383 12.6194 17.7383 15.8683C17.7383 19.0969 19.8221 20.9969 22.703 20.9765C23.6393 20.9562 25.0218 20.5593 25.6635 19.5303L25.8189 20.7565H28.349V10.972ZM21.2456 17.7235C20.7633 17.233 20.5081 16.5576 20.5434 15.865C20.5071 15.1699 20.7612 14.4915 21.243 13.997C21.7248 13.5025 22.3895 13.2378 23.0735 13.2681C24.7469 13.2681 25.6236 14.5564 25.6236 15.9621C25.6138 16.636 25.3382 17.2776 24.8587 17.743C24.3793 18.2084 23.7361 18.4586 23.0735 18.4374C22.3923 18.4733 21.728 18.2139 21.2456 17.7235Z" fill="#1D1934"/>
<path d="M33.2813 11.027V16.0179C33.2813 17.2858 33.9016 18.3957 35.2497 18.3957C36.5526 18.3957 37.4293 17.2494 37.4293 15.9205V11.027H40.2144V21.0858C40.2144 24.4521 37.7997 25.9187 35.5405 25.9187C33.0463 25.9187 31.0221 24.7317 30.6716 21.9974H33.3771C33.6479 23.0871 34.5246 23.306 35.4609 23.306C36.0271 23.3048 36.5686 23.07 36.9614 22.6554C37.3542 22.2407 37.5647 21.6818 37.5447 21.1065V19.6395C36.5885 20.9075 35.6759 20.9642 34.3334 20.9642C32.1141 20.9642 30.4766 19.1616 30.4766 16.034V11.027H33.2813Z" fill="#1D1934"/>
<path d="M43.0078 4.79222V1.66491C43.0107 0.746602 43.7421 0.00288505 44.6454 0C45.5486 0.00288505 46.2801 0.746602 46.2829 1.66491V4.79222L44.6454 6.45712" fill="#CDDE00"/>
<path d="M46.2829 8.18041V11.3077C46.2801 12.226 45.5486 12.9697 44.6454 12.9726C43.7421 12.9697 43.0107 12.226 43.0078 11.3077V8.18041L44.6454 6.5155" fill="#E81F76"/>
<path d="M43.0065 8.1585H39.9305C39.0273 8.15562 38.2958 7.41213 38.293 6.49411C38.2958 5.57608 39.0273 4.8326 39.9305 4.82971H43.0065L44.644 6.49411" fill="#00A7E1"/>
<path d="M46.2899 4.82971H49.3658C50.269 4.8326 51.0005 5.57608 51.0034 6.49411C51.0005 7.41213 50.269 8.15562 49.3658 8.1585H46.2899L44.6523 6.49411" fill="#FFA400"/>
</svg>
