<svg width="173" height="25" viewBox="0 0 173 25" fill="none" xmlns="http://www.w3.org/2000/svg">
<path d="M121.559 9.53808C121.559 3.39083 125.64 0.113594 129.444 0.113594H130.813C134.656 0.113594 137.354 3.14041 137.709 6.99796H134.498C134.287 4.70716 132.8 2.96947 130.852 2.96947H129.457C127.193 2.96947 124.929 5.40507 124.929 9.53808C124.929 13.6711 127.114 16.1056 129.417 16.1056H130.774C132.734 16.1056 134.235 14.2895 134.511 12.0782H137.723C137.419 16.0011 134.155 18.9626 130.774 18.9626H129.417C125.482 18.9626 121.559 15.6712 121.559 9.53808ZM155.249 11.3607V18.7709H152.156V5.50306H155.249V7.33221C155.736 6.1879 156.683 5.50306 157.921 5.50306H159.619V8.09654H157.684C156.144 8.09654 155.249 9.82117 155.249 11.3607ZM28.7656 9.56966V9.58055C28.7655 9.68303 28.7248 9.78129 28.6524 9.85383L19.4664 19.0399C19.4485 19.0578 19.4273 19.0721 19.404 19.0818C19.3806 19.0915 19.3556 19.0965 19.3303 19.0965H19.2726C19.2471 19.0965 19.2219 19.0915 19.1984 19.0817C19.1749 19.072 19.1535 19.0577 19.1355 19.0397C19.1175 19.0217 19.1033 19.0004 19.0935 18.9769C19.0838 18.9533 19.0788 18.9281 19.0788 18.9027V9.58055C19.0786 9.68303 19.0379 9.78129 18.9655 9.85383L9.8361 18.9833C9.80005 19.0192 9.75726 19.0478 9.71018 19.0672C9.6631 19.0866 9.61266 19.0966 9.56173 19.0965H9.55084C9.44873 19.0961 9.35092 19.0554 9.27864 18.9833L0.144859 9.85492C0.0731357 9.78247 0.0328448 9.68467 0.0327148 9.58272L0.0327148 9.57184C0.0327148 9.46949 0.0729997 9.37041 0.145948 9.29855L9.27538 0.168033C9.34774 0.0952455 9.44602 0.0541321 9.54866 0.0537109H9.55955C9.66189 0.0537109 9.76097 0.0939958 9.83283 0.165855L18.9623 9.29529C18.9982 9.33134 19.0268 9.37413 19.0462 9.4212C19.0656 9.46828 19.0756 9.51873 19.0755 9.56966V0.246425C19.0755 0.139725 19.1626 0.0537109 19.2693 0.0537109H19.327C19.3782 0.0537109 19.4272 0.0743978 19.4642 0.110328L28.6502 9.29529C28.6862 9.33134 28.7147 9.37413 28.7342 9.4212C28.7536 9.46828 28.7635 9.51873 28.7635 9.56966H28.7656ZM49.1879 1.07608C48.3147 0.597013 47.288 0.355303 46.1088 0.355303H38.5059V18.7056H41.8092V11.6667H46.1099C47.2891 11.6667 48.3158 11.426 49.1901 10.9459C50.0398 10.4896 50.737 9.79423 51.1956 8.94579C51.6584 8.09436 51.8903 7.11772 51.8903 6.01696C51.8903 4.91512 51.6594 3.93739 51.1956 3.07943C50.7379 2.22898 50.0405 1.53163 49.1901 1.0739L49.1879 1.07608ZM48.245 7.44C48.0436 7.86463 47.7355 8.20215 47.3207 8.45039C46.9069 8.69863 46.3843 8.82384 45.7539 8.82384H41.8092V3.1992H45.755C46.6815 3.1992 47.3773 3.46377 47.8454 3.99401C48.3136 4.52207 48.5466 5.19711 48.5466 6.01914C48.5466 6.54393 48.4475 7.01755 48.2461 7.44218V7.44H48.245ZM76.0024 5.49326L70.4714 20.8037C70.0686 21.923 69.5394 22.7439 68.884 23.2676C68.2285 23.7924 67.4119 24.0537 66.4342 24.0537H64.7499V21.4973H66.1968C66.6509 21.4973 67.0276 21.3383 67.3237 21.0204C67.621 20.7014 68.1447 19.348 68.2764 18.9168L63.378 5.49326H66.5757L69.7485 14.97C69.9575 14.1926 72.858 5.49326 72.858 5.49326H76.0024ZM85.6773 12.1718C86.2359 12.7358 86.5157 13.5981 86.5157 14.761C86.5157 15.5656 86.3034 16.282 85.8798 16.9102C85.4503 17.5449 84.8596 18.0537 84.1683 18.3844C83.4425 18.7408 82.6435 18.9228 81.835 18.9158H80.7593C79.9273 18.9224 79.1033 18.7521 78.3422 18.416C77.5942 18.085 76.9867 17.6255 76.5664 16.9755C76.1309 16.3049 75.9273 15.4121 75.9099 14.5889H78.9508C79.0031 15.1224 79.0967 15.7822 79.468 16.0958C79.8872 16.4486 80.3064 16.5422 80.7854 16.5422H81.6771C82.1671 16.5422 82.5776 16.4192 82.9085 16.1753C83.2406 15.9303 83.4061 15.5492 83.4061 15.0353C83.4061 14.5976 83.2798 14.2601 83.025 14.0195C82.7725 13.78 82.3827 13.6112 81.86 13.5154L79.3297 13.0167C78.2736 12.8077 77.4657 12.382 76.9126 11.7396C76.3574 11.0972 76.0808 10.2817 76.0808 9.29529C76.0808 8.52661 76.2855 7.83632 76.696 7.22442C77.1081 6.61169 77.679 6.12246 78.3476 5.80901C79.043 5.47568 79.8052 5.30514 80.5764 5.31035H81.5857C82.3903 5.31035 83.1361 5.47366 83.8286 5.79485C84.4955 6.10085 85.0728 6.57282 85.5053 7.16563C85.9332 7.75466 86.1575 8.8282 86.1749 9.59688H83.2112C83.1764 9.14286 83.098 8.49612 82.7213 8.13573C82.5651 7.9817 82.3793 7.86097 82.1752 7.78087C81.971 7.70076 81.7526 7.66296 81.5334 7.66973H80.682C80.2356 7.66973 79.8698 7.7895 79.5801 8.03012C79.2916 8.27074 79.1468 8.59955 79.1468 9.02091C79.1468 9.36061 79.2666 9.65785 79.5083 9.91045C79.7478 10.1652 80.0995 10.3383 80.5633 10.4352L83.1459 10.972C84.2728 11.2072 85.1166 11.6079 85.6751 12.1708L85.6773 12.1718ZM98.6697 15.791C98.5641 15.6472 98.5119 15.4262 98.5119 15.129V10.212C98.5119 9.29529 98.3137 8.45801 97.9217 7.7024C97.5384 6.95737 96.9458 6.34054 96.2167 5.92768C95.4731 5.49871 94.601 5.2853 93.5949 5.2853H92.6379C91.7473 5.2853 90.9176 5.4704 90.1479 5.84058C89.3951 6.1987 88.7458 6.74234 88.261 7.4204C87.771 8.10198 87.5696 8.72259 87.4988 9.59688H90.5801C90.6236 8.98389 90.763 8.63548 91.1572 8.28598C91.5491 7.93757 92.0608 7.78841 92.6379 7.78841H93.5938C93.9259 7.78841 94.2362 7.8864 94.5248 8.08238C94.8133 8.28054 95.0408 8.55491 95.2063 8.90768C95.3718 9.26262 95.4546 9.65894 95.4546 10.0944V10.3568L91.9552 10.8806C90.5485 11.1092 89.4227 11.5665 88.58 12.2579C87.7362 12.9492 87.3159 13.8921 87.3159 15.0887C87.3159 15.8585 87.4967 16.5313 87.8592 17.1084C88.2207 17.6854 88.7357 18.1318 89.3988 18.4454C90.0629 18.7601 90.8327 18.9179 91.707 18.9179C92.6412 18.9179 93.4675 18.735 94.184 18.3681C94.8993 18.0001 95.4284 17.4993 95.7692 16.8612C95.8041 17.4993 96.012 17.9663 96.392 18.2636C96.7731 18.5608 97.2903 18.71 97.9457 18.71H100.003V16.1274C99.6104 16.1274 99.3154 16.1078 99.1194 16.0686C98.9383 16.0393 98.7758 15.9404 98.6665 15.7931L98.6697 15.791ZM95.4578 13.228C95.4578 13.8747 95.325 14.4474 95.0572 14.9461C94.7904 15.4447 94.4148 15.8302 93.9314 16.1056C93.4447 16.38 92.8883 16.5193 92.259 16.5193C91.7255 16.5193 91.29 16.3745 90.9481 16.086C90.7824 15.9493 90.6503 15.7765 90.5618 15.5807C90.4733 15.385 90.4307 15.1716 90.4375 14.9569C90.4375 14.381 90.6269 13.9596 91.008 13.6929C91.388 13.4261 91.9748 13.2225 92.7696 13.0832L95.4578 12.5856V13.228ZM64.8685 16.1241C64.4755 16.1241 64.1804 16.1056 63.9844 16.0653C63.8035 16.0364 63.641 15.9379 63.5315 15.791C63.4259 15.6472 63.3736 15.4262 63.3736 15.129V10.212C63.3736 9.29529 63.1755 8.45801 62.7835 7.7024C62.4005 6.95752 61.8083 6.34071 61.0796 5.92768C60.3359 5.49871 59.4627 5.2853 58.4567 5.2853H57.5008C56.609 5.2853 55.7783 5.4704 55.0096 5.84058C54.2569 6.19874 53.6076 6.74237 53.1228 7.4204C52.6328 8.10198 52.4314 8.72259 52.3617 9.59688H55.4419C55.4854 8.98389 55.6248 8.63548 56.0189 8.28598C56.4109 7.93757 56.9226 7.78841 57.4997 7.78841H58.4556C58.7877 7.78841 59.098 7.8864 59.3865 8.08238C59.675 8.28054 59.9026 8.55491 60.0681 8.90768C60.2336 9.26262 60.3174 9.65894 60.3174 10.0944V10.3568L56.817 10.8806C55.4103 11.1092 54.2845 11.5665 53.4418 12.2579C52.5991 12.9492 52.1777 13.8921 52.1777 15.0887C52.1777 15.8585 52.3595 16.5313 52.7221 17.1084C53.0825 17.6854 53.5975 18.1318 54.2605 18.4454C54.9258 18.7601 55.6945 18.9179 56.5688 18.9179C57.5029 18.9179 58.3293 18.735 59.0457 18.3681C59.7611 18.0001 60.2902 17.4993 60.6321 16.8612C60.6658 17.4993 60.8738 17.9663 61.2538 18.2636C61.6349 18.5608 62.152 18.71 62.8075 18.71H64.8653V16.1274L64.8685 16.1252V16.1241ZM60.3196 13.228C60.3196 13.8747 60.1868 14.4474 59.92 14.9461C59.6522 15.4447 59.2776 15.8302 58.7931 16.1056C58.3075 16.38 57.7501 16.5193 57.1208 16.5193C56.5873 16.5193 56.1518 16.3745 55.8099 16.086C55.6442 15.9493 55.512 15.7765 55.4235 15.5807C55.335 15.385 55.2925 15.1716 55.2992 14.9569C55.2992 14.381 55.4887 13.9596 55.8698 13.6929C56.2508 13.4261 56.8366 13.2225 57.6325 13.0832L60.3196 12.5856V13.228ZM108.388 8.04972H104.795V18.7078H101.716V8.04972H99.1466V5.49326H101.716V4.24878C101.716 2.98144 102.035 2.01678 102.673 1.35154C103.311 0.687382 104.206 0.355303 105.361 0.355303H108.389V2.91176H106.292C105.786 2.91176 105.41 3.04459 105.166 3.31134C104.922 3.5781 104.798 3.98639 104.798 4.53731V5.49326H108.391V8.04972H108.388ZM117.839 6.13564C117.024 5.57013 116.052 5.27254 115.06 5.28422H114.051C113.071 5.28422 112.143 5.56185 111.266 6.11604C110.387 6.67132 109.676 7.4694 109.136 8.5081C108.594 9.54788 108.324 10.7325 108.324 12.0608C108.324 13.3891 108.574 14.5628 109.077 15.6059C109.58 16.6511 110.276 17.4633 111.161 18.0447C112.049 18.6261 113.03 18.9158 114.104 18.9158H115.074C115.992 18.9158 116.837 18.7143 117.611 18.3126C118.372 17.9224 119.026 17.3533 119.518 16.6544C120.012 15.9606 120.316 15.1487 120.396 14.3004H117.46C117.347 14.8775 117.072 15.3598 116.641 15.7485C116.221 16.1325 115.67 16.341 115.101 16.331H114.13C113.624 16.331 113.164 16.1557 112.748 15.8008C112.333 15.4469 112.003 14.9406 111.758 14.2808C111.583 13.7927 111.472 13.284 111.427 12.7674H120.462C120.471 12.6749 120.515 11.9323 120.515 11.6275C120.526 10.5238 120.279 9.43285 119.793 8.44168C119.313 7.47267 118.661 6.7029 117.84 6.13455L117.839 6.13564ZM111.542 10.5017C111.603 10.224 111.684 9.96162 111.783 9.71447C112.044 9.05902 112.388 8.56145 112.812 8.22066C113.235 7.87987 113.68 7.71002 114.142 7.71002H115.06C115.471 7.71002 115.855 7.83305 116.213 8.07803C116.571 8.32191 116.858 8.66053 117.071 9.09386C117.285 9.5272 117.4 9.99755 117.419 10.5027L111.542 10.5017ZM150.208 16.0642C150.027 16.0353 149.865 15.9368 149.755 15.7899C149.65 15.6461 149.597 15.4251 149.597 15.1279V10.2109C149.597 9.2942 149.399 8.45692 149.007 7.70131C148.625 6.95628 148.032 6.33942 147.303 5.9266C146.56 5.49762 145.687 5.28422 144.682 5.28422H143.725C142.833 5.28422 142.002 5.46931 141.233 5.83949C140.481 6.19765 139.831 6.74128 139.347 7.41932C138.857 8.10089 138.655 8.7215 138.586 9.59579H141.666C141.709 8.98281 141.849 8.63439 142.242 8.2849C142.636 7.93649 143.146 7.78732 143.722 7.78732H144.679C145.012 7.78732 145.322 7.88531 145.61 8.08129C145.899 8.27945 146.126 8.55383 146.292 8.90659C146.459 9.26153 146.541 9.65785 146.541 10.0934V10.3558L143.041 10.8795C141.634 11.1081 140.508 11.5654 139.667 12.2568C138.823 12.9481 138.402 13.891 138.402 15.0876C138.402 15.8563 138.583 16.5302 138.945 17.1073C139.307 17.6843 139.821 18.1297 140.485 18.4443C141.149 18.759 141.918 18.9168 142.793 18.9168C143.727 18.9168 144.553 18.7339 145.27 18.367C145.986 17.999 146.515 17.4982 146.856 16.859C146.89 17.4982 147.098 17.9652 147.478 18.2636C147.859 18.5597 148.376 18.7089 149.031 18.7089H151.09V16.1263C150.794 16.1337 150.498 16.114 150.205 16.0675L150.208 16.0642ZM146.543 13.2269C146.543 13.8736 146.411 14.4463 146.144 14.945C145.876 15.4436 145.501 15.8291 145.017 16.1045C144.531 16.3789 143.974 16.5183 143.346 16.5183C142.812 16.5183 142.376 16.3735 142.034 16.0838C141.868 15.9472 141.736 15.7746 141.648 15.5791C141.559 15.3835 141.517 15.1704 141.523 14.9559C141.523 14.3788 141.714 13.9585 142.094 13.6918C142.474 13.425 143.06 13.2214 143.857 13.0821L146.545 12.5845V13.2269H146.543ZM165.439 16.257H166.321C167.927 16.257 169.203 14.5334 169.203 12.0728C169.203 9.61103 167.927 7.8864 166.321 7.8864H165.439C163.926 7.8864 162.569 9.59797 162.569 12.0728C162.569 14.5465 163.913 16.258 165.439 16.258V16.257ZM159.437 12.0728C159.437 8.28163 161.674 5.2276 165.057 5.2276H165.861C167.032 5.2276 168.348 6.03112 168.98 6.99142V0.355303H172.06V18.7056H168.98V17.1791C168.243 18.1917 166.782 18.9168 165.768 18.9168H165.005C161.793 18.9168 159.437 15.7441 159.437 12.0717V12.0728Z" fill="black"/>
</svg>
