<svg width="85" height="24" viewBox="0 11 85 24" fill="none" xmlns="http://www.w3.org/2000/svg" xmlns:xlink="http://www.w3.org/1999/xlink">
<path d="M3.155 18.22H6.725C7.255 18.22 7.75 18.275 8.21 18.385C8.68 18.485 9.085 18.66 9.425 18.91C9.775 19.15 10.05 19.475 10.25 19.885C10.45 20.285 10.55 20.78 10.55 21.37C10.55 21.94 10.445 22.435 10.235 22.855C10.035 23.275 9.76 23.62 9.41 23.89C9.06 24.16 8.655 24.36 8.195 24.49C7.735 24.62 7.245 24.685 6.725 24.685H5.36V28H3.155V18.22ZM6.59 22.93C7.79 22.93 8.39 22.41 8.39 21.37C8.39 20.86 8.235 20.5 7.925 20.29C7.625 20.08 7.18 19.975 6.59 19.975H5.36V22.93H6.59ZM11.289 25.93C11.289 25.15 11.619 24.54 12.279 24.1C12.939 23.66 14.004 23.365 15.474 23.215C15.454 22.885 15.354 22.625 15.174 22.435C14.994 22.235 14.704 22.135 14.304 22.135C13.984 22.135 13.664 22.195 13.344 22.315C13.024 22.435 12.684 22.6 12.324 22.81L11.544 21.355C12.024 21.065 12.524 20.83 13.044 20.65C13.574 20.47 14.134 20.38 14.724 20.38C15.684 20.38 16.414 20.655 16.914 21.205C17.424 21.745 17.679 22.59 17.679 23.74V28H15.879L15.714 27.235H15.669C15.349 27.515 15.009 27.745 14.649 27.925C14.299 28.095 13.914 28.18 13.494 28.18C13.154 28.18 12.849 28.12 12.579 28C12.309 27.89 12.079 27.735 11.889 27.535C11.699 27.325 11.549 27.085 11.439 26.815C11.339 26.545 11.289 26.25 11.289 25.93ZM13.389 25.765C13.389 26.005 13.464 26.185 13.614 26.305C13.774 26.415 13.984 26.47 14.244 26.47C14.504 26.47 14.724 26.415 14.904 26.305C15.084 26.195 15.274 26.04 15.474 25.84V24.535C14.684 24.645 14.139 24.805 13.839 25.015C13.539 25.225 13.389 25.475 13.389 25.765ZM19.7367 29.08C19.8067 29.1 19.8867 29.12 19.9767 29.14C20.0667 29.16 20.1517 29.17 20.2317 29.17C20.6017 29.17 20.8867 29.08 21.0867 28.9C21.2867 28.72 21.4367 28.485 21.5367 28.195L21.6417 27.805L18.7767 20.56H20.9967L22.0617 23.755C22.1717 24.095 22.2717 24.44 22.3617 24.79C22.4517 25.14 22.5467 25.5 22.6467 25.87H22.7067C22.7867 25.52 22.8667 25.17 22.9467 24.82C23.0367 24.46 23.1267 24.105 23.2167 23.755L24.1167 20.56H26.2317L23.6517 28.075C23.4717 28.545 23.2817 28.955 23.0817 29.305C22.8917 29.665 22.6667 29.96 22.4067 30.19C22.1567 30.43 21.8667 30.61 21.5367 30.73C21.2167 30.85 20.8367 30.91 20.3967 30.91C20.1667 30.91 19.9717 30.895 19.8117 30.865C19.6517 30.845 19.4967 30.81 19.3467 30.76L19.7367 29.08ZM30.5141 17.485H32.7191V20.065L32.6591 21.205C32.9491 20.945 33.2591 20.745 33.5891 20.605C33.9291 20.455 34.2741 20.38 34.6241 20.38C35.0741 20.38 35.4791 20.47 35.8391 20.65C36.1991 20.83 36.5041 21.085 36.7541 21.415C37.0141 21.735 37.2091 22.13 37.3391 22.6C37.4791 23.06 37.5491 23.575 37.5491 24.145C37.5491 24.785 37.4591 25.355 37.2791 25.855C37.1091 26.355 36.8741 26.78 36.5741 27.13C36.2841 27.47 35.9491 27.73 35.5691 27.91C35.1991 28.09 34.8141 28.18 34.4141 28.18C34.0841 28.18 33.7491 28.1 33.4091 27.94C33.0791 27.78 32.7691 27.54 32.4791 27.22H32.4191L32.2391 28H30.5141V17.485ZM32.7191 25.9C32.9191 26.08 33.1191 26.205 33.3191 26.275C33.5191 26.345 33.7141 26.38 33.9041 26.38C34.2841 26.38 34.6091 26.21 34.8791 25.87C35.1491 25.52 35.2841 24.96 35.2841 24.19C35.2841 22.85 34.8541 22.18 33.9941 22.18C33.5541 22.18 33.1291 22.405 32.7191 22.855V25.9ZM39.1605 29.08C39.2305 29.1 39.3105 29.12 39.4005 29.14C39.4905 29.16 39.5755 29.17 39.6555 29.17C40.0255 29.17 40.3105 29.08 40.5105 28.9C40.7105 28.72 40.8605 28.485 40.9605 28.195L41.0655 27.805L38.2005 20.56H40.4205L41.4855 23.755C41.5955 24.095 41.6955 24.44 41.7855 24.79C41.8755 25.14 41.9705 25.5 42.0705 25.87H42.1305C42.2105 25.52 42.2905 25.17 42.3705 24.82C42.4605 24.46 42.5505 24.105 42.6405 23.755L43.5405 20.56H45.6555L43.0755 28.075C42.8955 28.545 42.7055 28.955 42.5055 29.305C42.3155 29.665 42.0905 29.96 41.8305 30.19C41.5805 30.43 41.2905 30.61 40.9605 30.73C40.6405 30.85 40.2605 30.91 39.8205 30.91C39.5905 30.91 39.3955 30.895 39.2355 30.865C39.0755 30.845 38.9205 30.81 38.7705 30.76L39.1605 29.08ZM50.1179 18.22H53.4629C53.9729 18.22 54.4429 18.26 54.8729 18.34C55.3129 18.41 55.6929 18.54 56.0129 18.73C56.3429 18.92 56.5979 19.17 56.7779 19.48C56.9679 19.79 57.0629 20.18 57.0629 20.65C57.0629 20.87 57.0279 21.09 56.9579 21.31C56.8979 21.53 56.8029 21.735 56.6729 21.925C56.5429 22.115 56.3729 22.285 56.1629 22.435C55.9529 22.585 55.7079 22.695 55.4279 22.765V22.825C56.1279 22.955 56.6529 23.205 57.0029 23.575C57.3629 23.945 57.5429 24.46 57.5429 25.12C57.5429 25.62 57.4429 26.05 57.2429 26.41C57.0529 26.77 56.7829 27.07 56.4329 27.31C56.0929 27.54 55.6929 27.715 55.2329 27.835C54.7729 27.945 54.2779 28 53.7479 28H50.1179V18.22ZM53.3579 22.165C53.8979 22.165 54.2879 22.06 54.5279 21.85C54.7779 21.63 54.9029 21.335 54.9029 20.965C54.9029 20.595 54.7779 20.33 54.5279 20.17C54.2779 20.01 53.8929 19.93 53.3729 19.93H52.3229V22.165H53.3579ZM53.5679 26.29C54.7779 26.29 55.3829 25.845 55.3829 24.955C55.3829 24.525 55.2329 24.215 54.9329 24.025C54.6329 23.825 54.1779 23.725 53.5679 23.725H52.3229V26.29H53.5679ZM58.7499 25.93C58.7499 25.15 59.0799 24.54 59.7399 24.1C60.3999 23.66 61.4649 23.365 62.9349 23.215C62.9149 22.885 62.8149 22.625 62.6349 22.435C62.4549 22.235 62.1649 22.135 61.7649 22.135C61.4449 22.135 61.1249 22.195 60.8049 22.315C60.4849 22.435 60.1449 22.6 59.7849 22.81L59.0049 21.355C59.4849 21.065 59.9849 20.83 60.5049 20.65C61.0349 20.47 61.5949 20.38 62.1849 20.38C63.1449 20.38 63.8749 20.655 64.3749 21.205C64.8849 21.745 65.1399 22.59 65.1399 23.74V28H63.3399L63.1749 27.235H63.1299C62.8099 27.515 62.4699 27.745 62.1099 27.925C61.7599 28.095 61.3749 28.18 60.9549 28.18C60.6149 28.18 60.3099 28.12 60.0399 28C59.7699 27.89 59.5399 27.735 59.3499 27.535C59.1599 27.325 59.0099 27.085 58.8999 26.815C58.7999 26.545 58.7499 26.25 58.7499 25.93ZM60.8499 25.765C60.8499 26.005 60.9249 26.185 61.0749 26.305C61.2349 26.415 61.4449 26.47 61.7049 26.47C61.9649 26.47 62.1849 26.415 62.3649 26.305C62.5449 26.195 62.7349 26.04 62.9349 25.84V24.535C62.1449 24.645 61.5999 24.805 61.2999 25.015C60.9999 25.225 60.8499 25.475 60.8499 25.765ZM67.0326 20.56H68.8326L68.9826 21.505H69.0426C69.3626 21.205 69.7126 20.945 70.0926 20.725C70.4726 20.495 70.9176 20.38 71.4276 20.38C72.2376 20.38 72.8226 20.645 73.1826 21.175C73.5526 21.705 73.7376 22.44 73.7376 23.38V28H71.5326V23.665C71.5326 23.125 71.4576 22.755 71.3076 22.555C71.1676 22.355 70.9376 22.255 70.6176 22.255C70.3376 22.255 70.0976 22.32 69.8976 22.45C69.6976 22.57 69.4776 22.745 69.2376 22.975V28H67.0326V20.56ZM75.6166 17.485H77.7616V23.515H77.8216L80.1766 20.56H82.5766L79.9666 23.62L82.7716 28H80.3866L78.7066 25.105L77.7616 26.17V28H75.6166V17.485Z" fill="#333333"/>
</svg>
