<svg width="80" height="24" viewBox="35 2 70 24" fill="none" xmlns="http://www.w3.org/2000/svg">
<path d="M45.4382 6.51388C44.505 5.45624 42.846 5 40.6892 5H34.4678C34.0323 5 33.659 5.31107 33.5968 5.74657L31.0045 22.1504C30.9631 22.4822 31.2119 22.7725 31.523 22.7725H35.3595L36.3135 16.6548L36.2927 16.8414C36.355 16.4059 36.7282 16.0949 37.1637 16.0949H38.9887C42.5764 16.0949 45.376 14.6432 46.1848 10.4334C46.2055 10.3089 46.2263 10.1845 46.247 10.0601C46.5373 8.52547 46.2885 7.46783 45.4382 6.51388Z" fill="#003087"/>
<path d="M92.3918 14.3283C92.1637 15.8629 90.9816 15.8629 89.841 15.8629H89.1981L89.6544 12.9803C89.6751 12.8144 89.841 12.6692 90.0069 12.6692H90.2973C91.0646 12.6692 91.8111 12.6692 92.1844 13.1047C92.4125 13.3951 92.4748 13.7683 92.3918 14.3283ZM91.8941 10.3051H87.6013C87.311 10.3051 87.0621 10.5125 87.0206 10.8028L85.2786 21.794C85.2372 22.0013 85.4031 22.2087 85.6312 22.2087H87.8294C88.0368 22.2087 88.2027 22.0636 88.2442 21.8562L88.7419 18.7455C88.7834 18.4551 89.0322 18.2478 89.3226 18.2478H90.6705C93.4909 18.2478 95.1292 16.879 95.544 14.1624C95.7306 12.9803 95.544 12.0471 95.0048 11.4042C94.4034 10.6784 93.325 10.3051 91.8941 10.3051Z" fill="#009CDE"/>
<path d="M61.799 14.3283C61.5709 15.8629 60.3888 15.8629 59.2482 15.8629H58.6054L59.0616 12.9803C59.0823 12.8144 59.2482 12.6692 59.4141 12.6692H59.7045C60.4718 12.6692 61.2184 12.6692 61.5916 13.1047C61.8198 13.3951 61.882 13.7683 61.799 14.3283ZM61.3013 10.3051H57.0085C56.7182 10.3051 56.4693 10.5125 56.4279 10.8028L54.6859 21.794C54.6444 22.0013 54.8103 22.2087 55.0384 22.2087H57.0915C57.3818 22.2087 57.6307 22.0013 57.6721 21.711L58.1491 18.7455C58.1906 18.4551 58.4395 18.2478 58.7298 18.2478H60.0778C62.8981 18.2478 64.5364 16.879 64.9512 14.1624C65.1379 12.9803 64.9512 12.0471 64.412 11.4042C63.8314 10.6784 62.753 10.3051 61.3013 10.3051Z" fill="#003087"/>
<path d="M71.2579 18.2602C71.0505 19.4423 70.1381 20.2304 68.9353 20.2304C68.3339 20.2304 67.8569 20.0437 67.5665 19.6704C67.2555 19.3179 67.1518 18.7994 67.2347 18.2188C67.4214 17.0574 68.3753 16.2487 69.5367 16.2487C70.1173 16.2487 70.5943 16.4353 70.9054 16.8086C71.2372 17.1819 71.3616 17.7003 71.2579 18.2602ZM74.1198 14.2785H72.0667C71.9008 14.2785 71.7349 14.403 71.7142 14.5896L71.6312 15.1703L71.486 14.9629C71.0505 14.32 70.0551 14.0919 69.0597 14.0919C66.7992 14.0919 64.8499 15.8132 64.4766 18.2188C64.2899 19.4216 64.5595 20.5622 65.2439 21.371C65.866 22.1175 66.7578 22.4079 67.8361 22.4079C69.6611 22.4079 70.6773 21.2258 70.6773 21.2258L70.5943 21.8065C70.5528 22.0138 70.7187 22.2212 70.9468 22.2212H72.7925C73.0829 22.2212 73.3317 22.0138 73.3732 21.7235L74.4931 14.6933C74.5138 14.4652 74.3479 14.2785 74.1198 14.2785Z" fill="#003087"/>
<path d="M101.851 18.2602C101.643 19.4423 100.731 20.2304 99.528 20.2304C98.9266 20.2304 98.4497 20.0437 98.1593 19.6704C97.8483 19.3179 97.7446 18.7994 97.8275 18.2188C98.0142 17.0574 98.9681 16.2487 100.129 16.2487C100.71 16.2487 101.187 16.4353 101.498 16.8086C101.809 17.1819 101.934 17.7003 101.851 18.2602ZM104.713 14.2785H102.659C102.494 14.2785 102.328 14.403 102.307 14.5896L102.224 15.1703L102.079 14.9629C101.643 14.32 100.648 14.0919 99.6525 14.0919C97.392 14.0919 95.4426 15.8132 95.0693 18.2188C94.8827 19.4216 95.1523 20.5622 95.8367 21.371C96.4588 22.1175 97.3505 22.4079 98.4289 22.4079C100.254 22.4079 101.27 21.2258 101.27 21.2258L101.187 21.8065C101.146 22.0138 101.312 22.2212 101.54 22.2212H103.385C103.676 22.2212 103.924 22.0138 103.966 21.7235L105.086 14.6933C105.107 14.4652 104.941 14.2785 104.713 14.2785Z" fill="#009CDE"/>
<path d="M85.0605 14.2639H82.9867C82.7793 14.2639 82.6134 14.3676 82.489 14.5335L79.6686 18.7226L78.4658 14.6994C78.3828 14.4505 78.1547 14.2639 77.8851 14.2639H75.8528C75.6039 14.2639 75.438 14.5127 75.521 14.7408L77.8022 21.4185L75.6662 24.4255C75.5003 24.6536 75.6662 24.9854 75.9565 24.9854H78.0096C78.1962 24.9854 78.3828 24.8818 78.5073 24.7366L85.3716 14.8238C85.5167 14.5957 85.3508 14.2639 85.0605 14.2639Z" fill="#003087"/>
<path d="M107.129 10.5991L105.367 21.7977C105.325 22.0051 105.491 22.2124 105.719 22.2124H107.482C107.772 22.2124 108.021 22.0051 108.062 21.7147L109.804 10.7236C109.846 10.5162 109.68 10.3088 109.452 10.3088H107.482C107.316 10.3088 107.171 10.4332 107.129 10.5991Z" fill="#009CDE"/>
<path d="M45.4382 6.51388C44.505 5.45624 42.846 5 40.6892 5H34.4678C34.0323 5 33.659 5.31107 33.5968 5.74657L31.0045 22.1504C30.9631 22.4822 31.2119 22.7725 31.523 22.7725H35.3595L36.3135 16.6548L36.2927 16.8414C36.355 16.4059 36.7282 16.0949 37.1637 16.0949H38.9887C42.5764 16.0949 45.376 14.6432 46.1848 10.4334C46.2055 10.3089 46.2263 10.1845 46.247 10.0601C46.5373 8.52547 46.2885 7.46783 45.4382 6.51388Z" fill="#003087"/>
<path d="M37.3981 10.1023C37.4395 9.83272 37.6055 9.62534 37.8336 9.52165C37.9373 9.48017 38.041 9.43869 38.1654 9.43869H43.0181C43.5988 9.43869 44.1379 9.48017 44.6149 9.56312C44.7601 9.58386 44.8845 9.6046 45.0297 9.64607C45.1541 9.66681 45.2993 9.70829 45.4237 9.74976C45.4859 9.7705 45.5481 9.79124 45.6103 9.81198C45.8592 9.89493 46.0873 9.97788 46.274 10.1023C46.5228 8.54696 46.274 7.48931 45.4237 6.53536C44.4905 5.47772 42.8314 5.02148 40.6747 5.02148H34.4533C34.0178 5.02148 33.6445 5.33256 33.5823 5.76806L31.0315 22.1511C30.99 22.4829 31.2389 22.7733 31.5499 22.7733H35.3865L36.3404 16.6555L37.3981 10.1023Z" fill="#003087"/>
<path d="M46.2936 10.0894C46.2729 10.2138 46.2522 10.3382 46.2314 10.4626C45.4227 14.6725 42.6023 16.1241 39.0353 16.1241H37.2104C36.7749 16.1241 36.4016 16.4352 36.3394 16.8707L35.1158 24.4608C35.0744 24.7512 35.2817 25 35.5721 25H38.8072C39.1805 25 39.5123 24.7304 39.5745 24.3364L39.616 24.1705L40.2174 20.3132L40.2589 20.1058C40.3211 19.7326 40.6529 19.4422 41.0262 19.4422H41.5032C44.6346 19.4422 47.0817 18.1772 47.8075 14.4858C48.0979 12.9512 47.9527 11.6654 47.1646 10.753C46.9365 10.4834 46.6255 10.276 46.2936 10.0894Z" fill="#009CDE"/>
<path d="M45.4327 9.74056C45.3083 9.69909 45.1839 9.67835 45.0387 9.63687C44.9143 9.61613 44.7691 9.57466 44.6239 9.55392C44.1262 9.47097 43.587 9.42949 43.0271 9.42949H38.1537C38.0292 9.42949 37.9255 9.45023 37.8219 9.51244C37.5937 9.61613 37.4278 9.82351 37.3864 10.0931L36.3494 16.6463L36.3287 16.833C36.3909 16.3975 36.7642 16.0864 37.1997 16.0864H39.0247C42.6123 16.0864 45.412 14.6347 46.2208 10.4249C46.2415 10.3005 46.2622 10.1761 46.283 10.0516C46.0756 9.94794 45.8475 9.84425 45.6194 9.7613C45.5572 9.78204 45.4949 9.7613 45.4327 9.74056Z" fill="#012169"/>
</svg>
