<svg width="50" height="24" viewBox="35 0 70 30" fill="none" xmlns="http://www.w3.org/2000/svg">
    <path d="M59.558 2.91982C59.558 3.98003 58.6649 4.83965 57.5634 4.83965C56.4619 4.83965 55.5688 3.98003 55.5688 2.91982C55.5688 1.85962 56.4619 1 57.5634 1C58.6649 1 59.558 1.85962 59.558 2.91982Z" fill="#00794D"/>
    <path d="M51.654 12.0183C53.2247 12.0183 54.2724 11.04 54.2724 9.52812C54.2724 8.01628 53.1936 6.97791 51.5619 6.97791C50.0833 6.97791 49.0371 7.98626 49.0371 9.58679C49.0371 11.13 50.0224 12.0183 51.654 12.0183Z" fill="#00467F"/>
    <path d="M59.8072 4.0974C59.3734 4.86151 58.5313 5.38001 57.5631 5.38001C56.1511 5.38001 55.0071 4.27888 55.0071 2.91986C55.0071 2.62922 55.0624 2.35223 55.1588 2.09298C54.114 1.85147 53.0239 1.72321 51.9025 1.72321C44.2247 1.72321 38 7.71464 38 15.1047C38 22.4947 44.2247 28.4861 51.9025 28.4861C59.5803 28.4861 65.8051 22.4947 65.8051 15.1047C65.8037 10.5418 63.4306 6.5139 59.8072 4.0974Z" fill="#00467F"/>
    <path d="M42.5371 10.8106H44.5345L46.0372 16.2372L47.5555 10.8106H49.5699L47.2819 18.9811H44.8039L42.5371 10.8106Z" fill="white"/>
    <path d="M50.584 7.34064H52.7175V9.40237H50.584V7.34064ZM50.584 10.8105H52.7175V18.981H50.584V10.8105Z" fill="white"/>
    <path d="M56.1757 11.6647C56.5443 11.3304 56.9143 11.0793 57.2857 10.9142C57.6571 10.7491 58.0286 10.6672 58.4028 10.6672C58.8862 10.6672 59.3994 10.8323 59.9452 11.1612C60.491 11.4914 60.9134 11.9853 61.2154 12.6457C61.5159 13.3048 61.6676 14.0375 61.6676 14.8425C61.6676 16.147 61.3259 17.1854 60.6441 17.9577C59.9622 18.7286 59.2279 19.1161 58.4439 19.1161C58.1122 19.1161 57.7791 19.0424 57.4473 18.8951C57.1156 18.7477 56.6918 18.4612 56.1786 18.0368V22.2721H54.0054V10.8105H56.1786V11.6647H56.1757ZM56.1757 13.0742V16.6123C56.4763 16.8224 56.7683 16.9793 57.0476 17.0844C57.3283 17.1895 57.5948 17.2427 57.8499 17.2427C58.3064 17.2427 58.6991 17.0489 59.0251 16.6614C59.3526 16.2739 59.5156 15.6449 59.5156 14.7757C59.5156 14.0061 59.3484 13.4276 59.0138 13.0401C58.6792 12.6526 58.2809 12.4588 57.8188 12.4588C57.5905 12.4588 57.3396 12.5093 57.0674 12.613C56.7952 12.7153 56.4975 12.8695 56.1757 13.0742Z" fill="white"/>
    <path d="M53.6571 6.07715H49.0371V9.82265H53.6571V6.07715Z" fill="#00467F"/>
    <path d="M50.4328 8.07354C50.3676 7.20437 51.1941 6.53987 52.0716 6.75818C52.6018 6.89054 52.9973 7.34627 53.037 7.87296C53.1022 8.74214 52.2743 9.40528 51.3982 9.18696C50.868 9.05597 50.4725 8.60023 50.4328 8.07354Z" fill="white"/>
    <path d="M68.5811 19.4506L72.5716 8.2182H74.8157L78.8049 19.4506H76.6856L75.8123 16.8513H71.558L70.6692 19.4506H68.5811ZM72.1038 15.2453H75.2679L73.6788 10.576L72.1038 15.2453Z" fill="#00467F"/>
    <path d="M84.5256 19.643C83.4241 19.643 82.4786 19.4001 81.689 18.913C80.8994 18.4259 80.2912 17.7477 79.8659 16.8744C79.4392 16.0025 79.2266 14.9942 79.2266 13.8494C79.2266 12.7046 79.4392 11.6935 79.8659 10.8161C80.2912 9.93878 80.8994 9.25381 81.689 8.7626C82.4786 8.27002 83.4241 8.02441 84.5256 8.02441C85.8355 8.02441 86.9072 8.35871 87.7436 9.02731C88.58 9.6959 89.1017 10.6347 89.3101 11.8436H87.1128C86.9781 11.2337 86.6889 10.7547 86.248 10.4068C85.8057 10.0589 85.2217 9.88557 84.4944 9.88557C83.4865 9.88557 82.6969 10.239 82.1256 10.9444C81.5543 11.6498 81.2679 12.6186 81.2679 13.8494C81.2679 15.0801 81.5529 16.0448 82.1256 16.7462C82.6969 17.4475 83.4865 17.7968 84.4944 17.7968C85.2217 17.7968 85.8057 17.6345 86.248 17.307C86.6889 16.9809 86.9781 16.5292 87.1128 15.9507H89.3101C89.1017 17.1064 88.58 18.0097 87.7436 18.6633C86.9072 19.3169 85.8341 19.643 84.5256 19.643Z" fill="#00467F"/>
    <path d="M91.0693 19.4506V8.21686H93.0639V12.8861H97.9575V8.21686H99.9521V19.4493H97.9575V14.5549H93.0639V19.4493H91.0693V19.4506Z" fill="#00467F"/>
    <path d="M70.4343 24.2139C70.2415 24.2139 70.0728 24.1757 69.9282 24.0979C69.7836 24.0215 69.6674 23.9124 69.5766 23.7732L69.5043 24.1471H68.916V20.1819H69.5766V21.807C69.6588 21.6855 69.768 21.5791 69.9041 21.4877C70.0402 21.3963 70.216 21.3499 70.4329 21.3499C70.6739 21.3499 70.8893 21.4126 71.0779 21.5368C71.2664 21.6623 71.4167 21.8329 71.5273 22.0485C71.6378 22.2654 71.6931 22.5111 71.6931 22.7867C71.6931 23.0623 71.6378 23.3065 71.5273 23.5221C71.4167 23.7364 71.2678 23.9056 71.0779 24.0284C70.8908 24.1525 70.6753 24.2139 70.4343 24.2139ZM70.2954 23.5972C70.5052 23.5972 70.6795 23.5221 70.817 23.372C70.9545 23.222 71.024 23.0268 71.024 22.788C71.024 22.5493 70.9545 22.3528 70.817 22.1986C70.6795 22.0444 70.5052 21.9666 70.2954 21.9666C70.0827 21.9666 69.9069 22.043 69.7708 22.1945C69.6347 22.3473 69.5667 22.5424 69.5667 22.7812C69.5667 23.02 69.6347 23.2151 69.7708 23.3679C69.9069 23.5208 70.0813 23.5972 70.2954 23.5972Z" fill="#00467F"/>
    <path d="M73.1653 24.2139C72.9456 24.2139 72.7641 24.1757 72.6238 24.1006C72.482 24.0256 72.3771 23.9246 72.3091 23.8005C72.2396 23.6763 72.2056 23.5385 72.2056 23.387C72.2056 23.1332 72.2991 22.9286 72.4848 22.7703C72.6705 22.612 72.9498 22.5329 73.3212 22.5329H73.9719V22.4674C73.9719 22.2804 73.9223 22.1426 73.8217 22.0539C73.7224 21.9652 73.5977 21.9216 73.4502 21.9216C73.3156 21.9216 73.1993 21.9557 73.0987 22.0239C72.9994 22.0921 72.9371 22.1917 72.913 22.3241H72.2679C72.285 22.1262 72.3473 21.953 72.4565 21.807C72.5656 21.661 72.7046 21.5477 72.8775 21.4686C73.049 21.3894 73.2418 21.3499 73.4559 21.3499C73.8202 21.3499 74.108 21.4467 74.3178 21.6419C74.5276 21.837 74.6325 22.1112 74.6325 22.4674V24.147H74.0697L74.0074 23.7063C73.9322 23.8537 73.8259 23.9738 73.6898 24.0693C73.5537 24.1661 73.3794 24.2139 73.1653 24.2139ZM73.3156 23.6626C73.5041 23.6626 73.6515 23.5972 73.7564 23.4648C73.8613 23.3324 73.928 23.1687 73.9549 22.975H73.3921C73.2163 22.975 73.0916 23.0091 73.015 23.0773C72.9399 23.1455 72.9016 23.2287 72.9016 23.3284C72.9016 23.4348 72.9399 23.518 73.015 23.5767C73.0916 23.634 73.1908 23.6626 73.3156 23.6626Z" fill="#00467F"/>
    <path d="M75.2603 24.1471V21.4154H75.8429L75.8939 21.8779C75.9733 21.7169 76.0881 21.5887 76.237 21.4918C76.3873 21.3963 76.563 21.3485 76.7658 21.3485C77.0819 21.3485 77.3286 21.4549 77.5043 21.6678C77.6801 21.8807 77.768 22.1931 77.768 22.6038V24.1457H77.1074V22.6693C77.1074 22.4346 77.062 22.2545 76.9727 22.129C76.8834 22.0048 76.7445 21.9421 76.5545 21.9421C76.3688 21.9421 76.2171 22.0116 76.0981 22.1508C75.979 22.29 75.9194 22.4851 75.9194 22.7348V24.1443H75.2603V24.1471Z" fill="#00467F"/>
    <path d="M78.3979 24.1471V20.1819H79.0586V22.522L79.9672 21.4154H80.7512L79.7036 22.6598L80.9213 24.1471H80.0948L79.0571 22.7758V24.1471H78.3979Z" fill="#00467F"/>
    <path d="M83.699 24.1471C83.4311 24.1471 83.2156 24.0775 83.054 23.9383C82.8924 23.7992 82.8116 23.5508 82.8116 23.1947V22.0049H82.3735V21.4154H82.8116L82.8895 20.6827H83.4722V21.4154H84.164V22.0049H83.4722V23.2001C83.4722 23.3325 83.4991 23.4226 83.5516 23.473C83.6054 23.5222 83.6976 23.5467 83.828 23.5467H84.1484V24.1471H83.699Z" fill="#00467F"/>
    <path d="M84.7329 24.1471V21.4154H85.3212L85.3836 21.927C85.4772 21.751 85.6033 21.6105 85.7635 21.5054C85.9237 21.4004 86.1123 21.3485 86.3291 21.3485V22.0922H86.1434C85.9988 22.0922 85.8698 22.1153 85.7564 22.1631C85.643 22.2109 85.5537 22.2941 85.4899 22.4114C85.4261 22.5288 85.3949 22.6925 85.3949 22.9013V24.1457H84.7329V24.1471Z" fill="#00467F"/>
    <path d="M87.6575 24.2139C87.4377 24.2139 87.2563 24.1757 87.1159 24.1006C86.9742 24.0256 86.8693 23.9246 86.8012 23.8005C86.7318 23.6763 86.6978 23.5385 86.6978 23.387C86.6978 23.1332 86.7913 22.9286 86.977 22.7703C87.1627 22.612 87.442 22.5329 87.8134 22.5329H88.4641V22.4674C88.4641 22.2804 88.4145 22.1426 88.3138 22.0539C88.2146 21.9652 88.0899 21.9216 87.9424 21.9216C87.8077 21.9216 87.6915 21.9557 87.5908 22.0239C87.4916 22.0921 87.4292 22.1917 87.4051 22.3241H86.7601C86.7771 22.1262 86.8395 21.953 86.9487 21.807C87.0578 21.661 87.1968 21.5477 87.3697 21.4686C87.5412 21.3894 87.734 21.3499 87.9481 21.3499C88.3124 21.3499 88.6002 21.4467 88.81 21.6419C89.0198 21.837 89.1247 22.1112 89.1247 22.4674V24.147H88.5619L88.4995 23.7063C88.4244 23.8537 88.3181 23.9738 88.182 24.0693C88.0459 24.1661 87.8715 24.2139 87.6575 24.2139ZM87.8077 23.6626C87.9963 23.6626 88.1437 23.5972 88.2486 23.4648C88.3535 23.3324 88.4202 23.1687 88.4471 22.975H87.8843C87.7085 22.975 87.5838 23.0091 87.5072 23.0773C87.4321 23.1455 87.3938 23.2287 87.3938 23.3284C87.3938 23.4348 87.4321 23.518 87.5072 23.5767C87.5838 23.634 87.683 23.6626 87.8077 23.6626Z" fill="#00467F"/>
    <path d="M89.7539 24.1471V21.4154H90.3365L90.3876 21.8779C90.467 21.7169 90.5818 21.5887 90.7306 21.4918C90.8809 21.3963 91.0567 21.3485 91.2594 21.3485C91.5755 21.3485 91.8222 21.4549 91.998 21.6678C92.1738 21.8807 92.2617 22.1931 92.2617 22.6038V24.1457H91.6011V22.6693C91.6011 22.4346 91.5557 22.2545 91.4664 22.129C91.3771 22.0048 91.2381 21.9421 91.0482 21.9421C90.8625 21.9421 90.7108 22.0116 90.5917 22.1508C90.4726 22.29 90.4131 22.4851 90.4131 22.7348V24.1443H89.7539V24.1471Z" fill="#00467F"/>
    <path d="M93.9513 24.2139C93.7245 24.2139 93.5246 24.1743 93.3531 24.0952C93.1816 24.016 93.0441 23.9069 92.9406 23.7677C92.8371 23.6285 92.7747 23.4661 92.7549 23.2833H93.4212C93.4424 23.3897 93.4977 23.4812 93.5884 23.5562C93.6792 23.6312 93.7968 23.6695 93.9414 23.6695C94.086 23.6695 94.1923 23.6381 94.259 23.5753C94.3256 23.5125 94.3596 23.4416 94.3596 23.3611C94.3596 23.2437 94.3114 23.1632 94.215 23.1223C94.1186 23.0814 93.984 23.0391 93.8124 22.9981C93.7018 22.9722 93.5899 22.9408 93.4764 22.904C93.363 22.8671 93.2581 22.8207 93.1646 22.7634C93.0696 22.7061 92.993 22.6324 92.9349 22.5438C92.8768 22.4537 92.847 22.3432 92.847 22.2108C92.847 21.9679 92.9378 21.7646 93.1178 21.5995C93.2978 21.4344 93.5516 21.3512 93.8791 21.3512C94.1824 21.3512 94.4234 21.4262 94.6049 21.5763C94.7849 21.7264 94.8926 21.9338 94.9281 22.1985H94.3029C94.2646 21.9966 94.1229 21.8956 93.8748 21.8956C93.7515 21.8956 93.6551 21.9215 93.5884 21.972C93.5218 22.0239 93.4878 22.088 93.4878 22.1644C93.4878 22.2449 93.5374 22.3091 93.6381 22.3568C93.7373 22.4046 93.8705 22.4482 94.035 22.4892C94.2136 22.5328 94.378 22.582 94.5283 22.6352C94.6786 22.6884 94.7977 22.7675 94.887 22.8726C94.9763 22.9777 95.0216 23.1264 95.0216 23.3215C95.0245 23.4907 94.9834 23.6422 94.8983 23.7786C94.8118 23.9151 94.6885 24.0215 94.5269 24.0979C94.3625 24.1757 94.1711 24.2139 93.9513 24.2139Z" fill="#00467F"/>
    <path d="M95.7207 24.1471V22.0048H95.3691V21.4154H95.7207V21.0961C95.7207 20.7659 95.7987 20.5312 95.956 20.3907C96.1134 20.2501 96.3246 20.1819 96.594 20.1819H96.8775V20.7823H96.6974C96.584 20.7823 96.5032 20.8068 96.455 20.8532C96.4068 20.901 96.3827 20.9815 96.3827 21.0961V21.4154H96.9356V22.0048H96.3827V24.1471H95.7207Z" fill="#00467F"/>
    <path d="M98.5965 24.2139C98.3385 24.2139 98.1102 24.1552 97.9103 24.0379C97.7105 23.9205 97.5545 23.7554 97.4411 23.5426C97.3277 23.3297 97.271 23.0841 97.271 22.8044C97.271 22.5219 97.3263 22.2695 97.4383 22.0498C97.5503 21.8301 97.7048 21.6582 97.9033 21.5354C98.1017 21.4126 98.3342 21.3512 98.6021 21.3512C98.8531 21.3512 99.0756 21.4099 99.2684 21.5272C99.4612 21.6446 99.6115 21.8056 99.7206 22.0089C99.8284 22.2122 99.8837 22.4401 99.8837 22.6884C99.8837 22.7293 99.8822 22.7716 99.8808 22.8153C99.8794 22.8589 99.8766 22.9053 99.8737 22.9531H97.9274C97.9415 23.166 98.011 23.3338 98.1357 23.4539C98.2619 23.5753 98.4136 23.6353 98.5922 23.6353C98.7269 23.6353 98.8389 23.6026 98.9296 23.5385C99.0203 23.4743 99.0884 23.3911 99.1337 23.2874H99.8043C99.7561 23.4607 99.6753 23.6176 99.5647 23.7581C99.4527 23.9 99.3152 24.0106 99.1522 24.0911C98.9877 24.1729 98.802 24.2139 98.5965 24.2139ZM98.6007 21.9229C98.4391 21.9229 98.2959 21.972 98.1726 22.0689C98.0493 22.1658 97.9699 22.3145 97.9359 22.5124H99.2103C99.2004 22.3323 99.138 22.189 99.0246 22.0826C98.9112 21.9761 98.7694 21.9229 98.6007 21.9229Z" fill="#00467F"/>
    <path d="M100.438 24.1471V21.4154H101.026L101.089 21.927C101.182 21.751 101.308 21.6105 101.469 21.5054C101.629 21.4004 101.817 21.3485 102.034 21.3485V22.0922H101.849C101.704 22.0922 101.575 22.1153 101.462 22.1631C101.348 22.2109 101.259 22.2941 101.195 22.4114C101.131 22.5288 101.1 22.6925 101.1 22.9013V24.1457H100.438V24.1471Z" fill="#00467F"/>
</svg>
