<svg width="85" height="24" viewBox="0 0 85 24" fill="none" xmlns="http://www.w3.org/2000/svg">
<path d="M28.6166 9.51703V9.52759C28.6166 9.63064 28.5759 9.72839 28.5034 9.80107L19.3554 18.9852C19.3186 19.0222 19.2699 19.042 19.2185 19.042H19.1606C19.054 19.042 18.9672 18.9548 18.9672 18.8478V9.52629C18.9672 9.62932 18.9264 9.7271 18.8541 9.79974L9.76127 18.9283C9.68888 19.0011 9.59018 19.042 9.48886 19.042H9.47835C9.3757 19.042 9.27832 19.0011 9.20595 18.9283L0.113167 9.80107C0.0407925 9.72839 0 9.62932 0 9.52759V9.51703C0 9.41397 0.0407925 9.31622 0.113167 9.24358L9.20463 0.114933C9.27702 0.0422743 9.3757 0.00132101 9.47702 0.00132101H9.48756C9.59018 0.00132101 9.68756 0.0422743 9.75995 0.114933L18.8527 9.24358C18.9251 9.31622 18.9659 9.4153 18.9659 9.51703V0.194198C18.9659 0.0871917 19.0527 0 19.1594 0H19.2172C19.2686 0 19.3172 0.0198159 19.3541 0.0568065L28.5021 9.24093C28.5745 9.31357 28.6153 9.41268 28.6153 9.51438L28.6166 9.51703Z" fill="black"/>
<path d="M36.6167 13.216H39.9417C40.0728 14.9402 41.1198 16.1201 42.7559 16.1201H44.0004C45.1785 16.1201 46.5388 15.3116 46.5388 13.6393C46.5388 9.67276 36.8789 12.1277 36.8789 5.22768C36.8789 2.09556 39.4309 0 42.4018 0H43.7229C46.7074 0 49.1164 1.83124 49.4177 5.33306H46.1319C45.9242 3.71431 45.0593 2.87816 43.6463 2.87816H42.4426C41.3037 2.87816 40.2175 3.67458 40.2175 5.01518C40.2175 8.96963 49.8774 6.2625 49.8774 13.4804C49.8774 16.9044 47.2862 19 43.9085 19H42.601C39.276 19 36.7887 16.6919 36.6184 13.2143L36.6167 13.216ZM50.9176 18.7892V0.188307H53.994V10.2964L58.7593 5.41426H62.6461L57.7123 10.4156L63.0785 18.7892H59.4794L55.5007 12.7911L53.9957 14.3027V18.7875H50.9193L50.9176 18.7892ZM66.5669 11.3243V18.7944H63.4922V5.41944H66.5686V7.26278C67.0521 6.10875 67.9953 5.41771 69.2262 5.41771H70.9151V8.03155H68.9912C67.4607 8.03155 66.5703 9.7695 66.5703 11.3209L66.5669 11.3243ZM72.0081 5.41944H75.0845V18.7944H72.0081V5.41944ZM76.8516 0.188307H79.9127V18.7892H76.8516V0.188307ZM81.5539 0.188307H84.6167V18.7892H81.5556V0.188307H81.5539ZM75.2156 0.188307H71.8906V3.47936H75.2156V0.188307Z" fill="#141414"/>
</svg>
