<svg width="141" height="23" viewBox="0 0 141 23" fill="none" xmlns="http://www.w3.org/2000/svg">
<path d="M97.0859 9.3921C97.0859 4.57112 100.28 2 103.258 2H104.33C107.339 2 109.452 4.37422 109.73 7.39925H107.215C107.051 5.6033 105.886 4.24053 104.361 4.24053H103.269C101.497 4.24053 99.7238 6.15048 99.7238 9.3921C99.7238 12.6337 101.435 14.5437 103.238 14.5437H104.299C105.834 14.5437 107.009 13.1187 107.225 11.385H109.74C109.503 14.4618 106.947 16.7842 104.299 16.7842H103.238C100.157 16.7842 97.0859 14.2038 97.0859 9.3921Z" fill="#141414"/>
<path d="M24.4959 9.50108V9.50937C24.4959 9.59021 24.4638 9.66689 24.407 9.72389L17.2155 16.9284C17.1866 16.9574 17.1483 16.973 17.108 16.973H17.0624C16.9787 16.973 16.9104 16.9046 16.9104 16.8206V9.50834C16.9104 9.58917 16.8783 9.66586 16.8214 9.72286L9.67346 16.8839C9.61656 16.9409 9.53898 16.973 9.45933 16.973H9.45105C9.37037 16.973 9.29382 16.9409 9.23693 16.8839L2.08896 9.72389C2.03207 9.66689 2 9.58917 2 9.50937V9.50108C2 9.42025 2.03207 9.34356 2.08896 9.28656L9.23589 2.12556C9.29278 2.06856 9.37037 2.03644 9.45002 2.03644H9.45829C9.53898 2.03644 9.61553 2.06856 9.67242 2.12556L16.8204 9.28656C16.8773 9.34356 16.9093 9.42129 16.9093 9.50108V2.18774C16.9093 2.1038 16.9776 2.0354 17.0614 2.0354H17.1069C17.1473 2.0354 17.1855 2.05095 17.2145 2.07996L24.4059 9.28449C24.4628 9.34149 24.4949 9.41921 24.4949 9.49901L24.4959 9.50108Z" fill="#141414"/>
<path d="M41.9739 4.31108C41.6098 3.63644 41.0843 3.11102 40.3974 2.73172C39.7106 2.35347 38.9037 2.16382 37.9769 2.16382H32.002V16.6123H34.5984V11.07H37.9779C38.9048 11.07 39.7116 10.8803 40.3985 10.5021C41.0853 10.1238 41.6108 9.59945 41.975 8.92791C42.3391 8.25741 42.5211 7.48845 42.5211 6.62105C42.5211 5.75365 42.3391 4.98366 41.975 4.30901L41.9739 4.31108ZM39.6558 7.74235C39.4975 8.07605 39.2554 8.34135 38.9296 8.53721C38.6037 8.73308 38.1931 8.83153 37.6986 8.83153H34.5974V4.40332H37.6986C38.4268 4.40332 38.9741 4.61162 39.3413 5.02822C39.7085 5.44482 39.8926 5.97646 39.8926 6.62312C39.8926 7.03558 39.814 7.40969 39.6558 7.74339V7.74235Z" fill="#141414"/>
<path d="M61.4682 6.20923L57.1204 18.2638C56.8049 19.1446 56.3891 19.7913 55.8739 20.2038C55.3588 20.6162 54.7164 20.8224 53.9478 20.8224H52.6248V18.8099H53.7616C54.1185 18.8099 54.4143 18.6845 54.6471 18.4337C54.8809 18.1829 55.2926 17.1176 55.396 16.7777L51.5469 6.20923H54.0606L56.5536 13.6708C56.718 13.0583 58.9979 6.20923 58.9979 6.20923H61.4671H61.4682Z" fill="#141414"/>
<path d="M69.0701 11.4724C69.5097 11.916 69.729 12.5958 69.729 13.5109C69.729 14.1441 69.5624 14.7078 69.2294 15.2032C68.8963 15.6986 68.4484 16.0861 67.8846 16.3639C67.3219 16.6426 66.7105 16.7815 66.0505 16.7815H65.2054C64.5258 16.7815 63.8917 16.6509 63.3051 16.3888C62.7176 16.1276 62.2407 15.7659 61.9097 15.254C61.5683 14.7265 61.408 14.0228 61.3945 13.3751H63.7841C63.8255 13.7948 63.8989 14.3151 64.1906 14.5617C64.5196 14.8394 64.8485 14.913 65.2261 14.913H65.9264C66.3112 14.913 66.634 14.8166 66.8946 14.6239C67.1553 14.4311 67.2857 14.1316 67.2857 13.7264C67.2857 13.3824 67.1863 13.116 66.9867 12.9264C66.7871 12.7378 66.4819 12.6051 66.0702 12.5295L64.082 12.1377C63.2513 11.973 62.6172 11.6372 62.1817 11.1315C61.7452 10.6258 61.528 9.98427 61.528 9.20702C61.528 8.60181 61.6893 8.05774 62.0121 7.57688C62.3348 7.09499 62.7672 6.72399 63.3103 6.4618C63.8524 6.20065 64.4368 6.07007 65.0616 6.07007H65.855C66.4871 6.07007 67.0736 6.19754 67.6167 6.45144C68.1587 6.70637 68.5984 7.06598 68.9356 7.53025C69.2718 7.99452 69.4476 8.83913 69.4611 9.44434H67.1326C67.1046 9.08681 67.0436 8.57797 66.7467 8.29402C66.4622 8.0225 66.1571 7.92716 65.8136 7.92716H65.1444C64.7937 7.92716 64.5061 8.02147 64.2785 8.21111C64.052 8.40076 63.9382 8.65984 63.9382 8.99043C63.9382 9.25884 64.0323 9.49305 64.2217 9.69202C64.4099 9.89203 64.6871 10.0288 65.0513 10.1045L67.0808 10.5273C67.9663 10.7128 68.6294 11.0278 69.069 11.4714L69.0701 11.4724Z" fill="#141414"/>
<path d="M128.304 11.4724C128.744 11.916 128.963 12.5958 128.963 13.5109C128.963 14.1441 128.797 14.7078 128.464 15.2032C128.131 15.6986 127.683 16.0861 127.119 16.3639C126.556 16.6426 125.945 16.7815 125.285 16.7815H124.44C123.76 16.7815 123.126 16.6509 122.54 16.3888C121.952 16.1276 121.475 15.7659 121.144 15.254C120.803 14.7265 120.642 14.0228 120.629 13.3751H123.018C123.06 13.7948 123.133 14.3151 123.425 14.5617C123.754 14.8394 124.083 14.913 124.46 14.913H125.161C125.546 14.913 125.868 14.8166 126.129 14.6239C126.39 14.4311 126.52 14.1316 126.52 13.7264C126.52 13.3824 126.421 13.116 126.221 12.9264C126.021 12.7378 125.716 12.6051 125.305 12.5295L123.316 12.1377C122.486 11.973 121.852 11.6372 121.416 11.1315C120.98 10.6258 120.762 9.98427 120.762 9.20702C120.762 8.60181 120.924 8.05774 121.246 7.57688C121.569 7.09499 122.002 6.72399 122.545 6.4618C123.087 6.20065 123.671 6.07007 124.296 6.07007H125.089C125.721 6.07007 126.308 6.19754 126.851 6.45144C127.393 6.70637 127.833 7.06598 128.17 7.53025C128.506 7.99452 128.682 8.83913 128.695 9.44434H126.367C126.339 9.08681 126.278 8.57797 125.981 8.29402C125.697 8.0225 125.391 7.92716 125.048 7.92716H124.379C124.028 7.92716 123.74 8.02147 123.513 8.21111C123.286 8.40076 123.173 8.65984 123.173 8.99043C123.173 9.25884 123.267 9.49305 123.456 9.69202C123.644 9.89203 123.922 10.0288 124.286 10.1045L126.315 10.5273C127.201 10.7128 127.864 11.0278 128.303 11.4714L128.304 11.4724Z" fill="#141414"/>
<path d="M79.6363 14.5347C79.4812 14.5036 79.3632 14.4321 79.2805 14.3181C79.1977 14.2051 79.1563 14.031 79.1563 13.7968V9.92614C79.1563 9.20382 79.0012 8.54472 78.6929 7.94987C78.3836 7.35502 77.9378 6.88867 77.3533 6.55187C76.7689 6.21506 76.083 6.04614 75.2927 6.04614H74.5407C73.8404 6.04614 73.1876 6.19226 72.5835 6.48451C71.9794 6.77675 71.485 7.19128 71.1001 7.7281C70.7153 8.26491 70.5571 8.75302 70.5022 9.44114H72.9228C72.957 8.95925 73.0666 8.68462 73.3759 8.40896C73.6852 8.13434 74.0866 8.01723 74.5397 8.01723H75.2917C75.5524 8.01723 75.7965 8.09496 76.023 8.24937C76.2496 8.40482 76.4285 8.62141 76.5589 8.89914C76.6892 9.17791 76.7544 9.48985 76.7544 9.83287V10.0401L74.0038 10.4526C72.898 10.6319 72.0136 10.9925 71.3515 11.5366C70.6884 12.0807 70.3574 12.8237 70.3574 13.7657C70.3574 14.372 70.5002 14.9015 70.7846 15.3554C71.0691 15.8094 71.4736 16.1607 71.9949 16.4083C72.5173 16.656 73.1214 16.7804 73.8083 16.7804C74.5428 16.7804 75.1924 16.6363 75.7551 16.3472C76.3178 16.0581 76.7337 15.6632 77.0016 15.1606C77.0285 15.6632 77.1919 16.0311 77.4909 16.2653C77.7898 16.4995 78.1964 16.6167 78.7115 16.6167H80.3294V14.5834C80.0201 14.5834 79.7884 14.5678 79.6343 14.5367L79.6363 14.5347ZM76.7564 12.3004C76.7564 12.8092 76.652 13.26 76.442 13.6528C76.232 14.0455 75.9372 14.3492 75.5565 14.5658C75.1748 14.7824 74.7372 14.8912 74.2428 14.8912C73.8238 14.8912 73.4804 14.7782 73.2125 14.5502C72.9445 14.3233 72.8111 14.0269 72.8111 13.6621C72.8111 13.2082 72.9601 12.8766 73.259 12.6662C73.558 12.4568 74.0193 12.2962 74.6441 12.1864L76.7564 11.7946V12.3004Z" fill="#141414"/>
<path d="M52.0191 14.5347C51.864 14.5036 51.746 14.4321 51.6633 14.3181C51.5805 14.2051 51.5392 14.031 51.5392 13.7968V9.92614C51.5392 9.20382 51.384 8.54472 51.0757 7.94987C50.7664 7.35502 50.3206 6.88867 49.7361 6.55187C49.1517 6.21506 48.4658 6.04614 47.6755 6.04614H46.9235C46.2232 6.04614 45.5705 6.19226 44.9663 6.48451C44.3622 6.77675 43.8678 7.19128 43.483 7.7281C43.0981 8.26491 42.9399 8.75302 42.8851 9.44114H45.3056C45.3398 8.95925 45.4494 8.68462 45.7587 8.40896C46.068 8.13434 46.4694 8.01723 46.9225 8.01723H47.6745C47.9352 8.01723 48.1793 8.09496 48.4058 8.24937C48.6324 8.40482 48.8113 8.62141 48.9417 8.89914C49.072 9.17791 49.1372 9.48985 49.1372 9.83287V10.0401L46.3866 10.4526C45.2808 10.6319 44.3964 10.9925 43.7343 11.5366C43.0713 12.0807 42.7402 12.8237 42.7402 13.7657C42.7402 14.372 42.883 14.9015 43.1675 15.3554C43.4519 15.8094 43.8564 16.1607 44.3777 16.4083C44.9001 16.656 45.5043 16.7804 46.1911 16.7804C46.9256 16.7804 47.5752 16.6363 48.1379 16.3472C48.7007 16.0581 49.1165 15.6632 49.3844 15.1606C49.4113 15.6632 49.5748 16.0311 49.8737 16.2653C50.1727 16.4995 50.5792 16.6167 51.0944 16.6167H52.7122V14.5834C52.4029 14.5834 52.1712 14.5678 52.0171 14.5367L52.0191 14.5347ZM49.1393 12.3004C49.1393 12.8092 49.0348 13.26 48.8248 13.6528C48.6148 14.0455 48.32 14.3492 47.9393 14.5658C47.5576 14.7824 47.12 14.8912 46.6256 14.8912C46.2066 14.8912 45.8632 14.7782 45.5953 14.5502C45.3274 14.3233 45.1939 14.0269 45.1939 13.6621C45.1939 13.2082 45.3429 12.8766 45.6418 12.6662C45.9408 12.4568 46.4021 12.2962 47.0269 12.1864L49.1393 11.7946V12.3004Z" fill="#141414"/>
<path d="M119.66 14.5347C119.505 14.5036 119.387 14.4321 119.304 14.3181C119.221 14.2051 119.18 14.031 119.18 13.7968V9.92614C119.18 9.20382 119.025 8.54472 118.716 7.94987C118.407 7.35502 117.961 6.88867 117.377 6.55187C116.792 6.21506 116.106 6.04614 115.316 6.04614H114.564C113.864 6.04614 113.211 6.19226 112.607 6.48451C112.003 6.77675 111.508 7.19128 111.124 7.7281C110.739 8.26491 110.581 8.75302 110.526 9.44114H112.946C112.98 8.95925 113.09 8.68462 113.399 8.40896C113.709 8.13434 114.11 8.01723 114.563 8.01723H115.315C115.576 8.01723 115.82 8.09496 116.046 8.24937C116.273 8.40482 116.452 8.62141 116.582 8.89914C116.713 9.17791 116.778 9.48985 116.778 9.83287V10.0401L114.027 10.4526C112.921 10.6319 112.037 10.9925 111.375 11.5366C110.712 12.0807 110.381 12.8237 110.381 13.7657C110.381 14.372 110.524 14.9015 110.808 15.3554C111.093 15.8094 111.497 16.1607 112.018 16.4083C112.541 16.656 113.145 16.7804 113.832 16.7804C114.566 16.7804 115.216 16.6363 115.779 16.3472C116.341 16.0581 116.757 15.6632 117.025 15.1606C117.052 15.6632 117.215 16.0311 117.514 16.2653C117.813 16.4995 118.22 16.6167 118.735 16.6167H120.353V14.5834C120.044 14.5834 119.812 14.5678 119.658 14.5367L119.66 14.5347ZM116.78 12.3004C116.78 12.8092 116.675 13.26 116.465 13.6528C116.255 14.0455 115.961 14.3492 115.58 14.5658C115.198 14.7824 114.761 14.8912 114.266 14.8912C113.847 14.8912 113.504 14.7782 113.236 14.5502C112.968 14.3233 112.835 14.0269 112.835 13.6621C112.835 13.2082 112.984 12.8766 113.282 12.6662C113.581 12.4568 114.043 12.2962 114.668 12.1864L116.78 11.7946V12.3004Z" fill="#141414"/>
<path d="M86.9229 8.22193H84.1V16.613H81.6794V8.22193H79.6602V6.20939H81.6794V5.22902C81.6794 4.23104 81.9297 3.47142 82.4314 2.94807C82.9331 2.42576 83.6365 2.16357 84.5437 2.16357H86.924V4.17612H85.2761C84.8779 4.17612 84.582 4.28079 84.3906 4.49116C84.1982 4.70153 84.102 5.02279 84.102 5.45598V6.20939H86.925V8.22193H86.9229Z" fill="#141414"/>
<path d="M96.4491 11.041C96.4491 10.1332 96.2598 9.29685 95.8822 8.53308C95.5046 7.76931 94.9926 7.16409 94.3471 6.7164C93.7016 6.26974 92.9734 6.0459 92.1634 6.0459H91.37C90.6004 6.0459 89.8711 6.26456 89.1811 6.70086C88.4911 7.13818 87.9325 7.7662 87.5074 8.58489C87.0812 9.40359 86.8691 10.3363 86.8691 11.3819C86.8691 12.4276 87.0667 13.352 87.4619 14.1738C87.857 14.9956 88.4032 15.636 89.0994 16.0931C89.7966 16.5511 90.5673 16.7791 91.4124 16.7791H92.1748C92.8958 16.7791 93.5599 16.6206 94.1681 16.3045C94.7764 15.9884 95.275 15.5531 95.667 14.9987C96.058 14.4453 96.2887 13.8277 96.357 13.1458H94.0492C93.9602 13.5997 93.745 13.98 93.4058 14.2857C93.0654 14.5925 92.662 14.7448 92.1955 14.7448H91.4331C91.0348 14.7448 90.6728 14.6059 90.3459 14.3272C90.02 14.0484 89.7604 13.6494 89.568 13.1302C89.4356 12.7716 89.3497 12.3737 89.3083 11.9384H96.4087C96.416 11.8659 96.4501 11.2814 96.4501 11.041H96.4491ZM89.3994 10.1529C89.448 9.93522 89.5111 9.72796 89.5887 9.53417C89.7945 9.01808 90.0645 8.62635 90.3976 8.35794C90.7307 8.08953 91.0793 7.95584 91.4434 7.95584H92.1644C92.4872 7.95584 92.7892 8.05222 93.0706 8.24498C93.352 8.43774 93.5775 8.70407 93.745 9.04502C93.9126 9.38597 94.0037 9.75594 94.0181 10.1549H89.3994V10.1529Z" fill="#141414"/>
<path d="M129.73 2.16382H132.151V7.69986C132.668 6.77753 133.754 6.05211 134.81 6.05211H135.71C137.509 6.05211 138.999 7.75168 138.999 10.042V16.6123H136.578V10.415C136.578 9.19217 135.937 8.21803 134.923 8.21803H134.21C133.01 8.21803 132.151 9.51343 132.151 11.0783V16.6123H129.73V2.16382Z" fill="#141414"/>
</svg>
