<svg width="30" height="10" viewBox="0 0 30 10" fill="none" xmlns="http://www.w3.org/2000/svg">
<path d="M26.9045 9.53615C26.864 9.78619 26.9336 9.88308 27.1883 9.87621C27.6808 9.86245 28.1739 9.8662 28.6658 9.8437C28.7265 9.8412 28.8169 9.73368 28.8327 9.66117C28.9079 9.32861 28.9705 8.9923 29.0217 8.65536C29.3467 6.52498 29.6659 4.39398 29.9915 2.26423C30.0225 2.06044 29.9548 1.97167 29.7462 1.97543C29.2733 1.98355 28.8011 1.99293 28.3282 1.9898C28.0229 1.98793 27.9198 2.1317 27.8907 2.42175C27.8187 3.14313 27.7099 3.86139 27.6233 4.58151C27.6201 4.60527 27.617 4.62652 27.6126 4.64715H27.0158C26.9721 4.56964 26.9683 4.46774 26.9867 4.34209C27.0834 3.6651 27.1624 2.9856 27.2623 2.30923C27.2958 2.08232 27.201 2.00418 26.9924 2.00418C26.7616 2.00418 26.5309 2.00418 26.2995 2.00418V2.02856C26.0681 2.02856 25.8373 2.03168 25.606 2.02793C25.3727 2.02418 25.2342 2.10545 25.2083 2.35987C25.1501 2.91559 25.0825 3.47131 25.0022 4.02454C24.7354 5.87112 24.4655 7.7177 24.1867 9.56302C24.1538 9.78056 24.2373 9.84807 24.4294 9.8512C24.9339 9.86058 25.4384 9.87933 25.9423 9.86871C26.027 9.86683 26.1686 9.74806 26.1825 9.66679C26.2944 9.01293 26.3772 8.35469 26.479 7.69957C26.5062 7.52391 26.5397 7.34888 26.5751 7.17447H27.2459C27.2427 7.19323 27.2396 7.21136 27.237 7.22948C27.1296 7.99962 27.0271 8.77038 26.9032 9.53802L26.9045 9.53615Z" fill="#05705C"/>
<path d="M16.2723 9.80941C16.7697 9.80941 17.2678 9.80257 17.7645 9.82372C18.0396 9.83554 18.104 9.72668 18.1021 9.48035C18.0925 8.30282 18.0976 7.1259 18.0976 5.94836C18.0906 5.94836 18.0842 5.94836 18.0772 5.94836C18.0772 4.76088 18.0772 3.57277 18.0772 2.38528C18.0772 2.16569 18.0638 1.97224 17.7486 1.97535C16.9226 1.98281 16.0965 1.9685 15.2705 1.98157C15.1775 1.98281 15.026 2.08545 15.0024 2.16818C14.7209 3.16097 14.461 4.15998 14.1897 5.15588C13.9668 5.97262 13.7344 6.78689 13.5083 7.60301C13.321 8.2798 13.1363 8.95783 12.9523 9.63524C12.9173 9.76463 12.895 9.88593 13.1071 9.87597C13.6662 9.84985 14.2273 9.84301 14.7846 9.79635C14.8858 9.78764 15.0215 9.64582 15.0591 9.53758C15.1578 9.25579 15.2177 8.96094 15.2801 8.66858C15.2801 8.66671 15.2807 8.66547 15.2813 8.66423H16.0227C16.0227 8.67604 16.0233 8.68786 16.0233 8.70031C16.0233 8.97774 16.0622 9.25828 16.0271 9.53074C15.9991 9.75281 16.0723 9.80941 16.2723 9.80941ZM15.5915 6.62391C15.794 5.8986 15.9857 5.17018 16.1895 4.4455C16.2105 4.37147 16.287 4.31176 16.3379 4.24582C16.3532 4.32171 16.3838 4.39822 16.3819 4.47411C16.3761 4.70054 16.3577 4.92696 16.3443 5.15339C16.3462 5.15339 16.3481 5.15339 16.35 5.15339C16.3156 5.6784 16.2787 6.20278 16.2475 6.72779C16.2456 6.75952 16.2424 6.78875 16.2379 6.81612H15.5788C15.5667 6.76636 15.5692 6.70353 15.5915 6.62329V6.62391Z" fill="#05705C"/>
<path d="M11.3793 9.83142C11.3776 9.60907 11.3715 9.38638 11.3471 9.16507C11.3423 9.12239 11.2469 9.05596 11.1881 9.05217C10.8853 9.03221 10.5808 9.02223 10.2768 9.02154C8.75602 9.01878 7.23484 9.02016 5.71411 9.02016C5.71411 9.01775 5.71411 9.01534 5.71411 9.01328C5.39523 9.01328 5.0768 9.01121 4.75793 9.01328C3.252 9.02395 1.74564 9.03703 0.239716 9.04529C0.0693902 9.04632 0.00143408 9.10552 0.00012723 9.22943C-0.000744003 9.33234 0.00317601 9.43526 0.00230478 9.53782C-0.00205138 9.98837 0.00883936 9.99938 0.582546 9.99973C2.4949 10.0004 4.40682 9.99973 6.31918 9.99904C7.9131 9.99835 9.50702 9.99457 11.1009 9.99629C11.2608 9.99629 11.3806 9.97563 11.3793 9.83107V9.83142Z" fill="#05705C"/>
<path d="M21.9861 5.15294C21.9575 5.35093 22.0178 5.4441 22.2285 5.44103C22.45 5.43797 22.6715 5.44042 22.893 5.44042C22.893 5.44532 22.893 5.44961 22.893 5.45452C23.1666 5.44226 23.442 5.44103 23.7136 5.41099C23.8012 5.40119 23.9396 5.32825 23.9535 5.2645C24.1154 4.5081 24.3045 3.74128 24.0735 2.97445C23.8774 2.32287 23.3119 2.07646 22.6772 1.92076C21.6574 1.67067 19.9025 2.08075 19.4468 3.48628C19.2882 3.97604 19.2215 4.49645 19.1486 5.00766C19.0045 6.01477 18.8591 7.02309 18.7633 8.0351C18.6649 9.08021 19.1098 9.62453 20.1589 9.89975C21.1687 10.1645 22.0559 9.88749 22.8067 9.27146C23.5626 8.65114 23.6432 7.73598 23.6997 6.84595C23.7029 6.7914 23.5601 6.6829 23.4782 6.67616C23.1215 6.64735 22.7617 6.64183 22.4031 6.63632C21.7418 6.6259 21.7487 6.62957 21.6434 7.27196C21.5844 7.63177 21.5222 7.99465 21.4067 8.33913C21.3699 8.44947 21.1465 8.58248 21.0309 8.56532C20.9212 8.54877 20.8006 8.3612 20.7593 8.22757C20.7168 8.09027 20.753 7.92477 20.7752 7.77459C20.9745 6.41687 21.1782 5.05976 21.3794 3.70204C21.4219 3.41395 21.6364 3.2227 21.9169 3.25703C22.2603 3.29933 22.1651 3.56719 22.1492 3.76028C22.1105 4.22613 22.0502 4.69015 21.9836 5.15355L21.9861 5.15294Z" fill="#05705C"/>
<path d="M11.373 2.58697C11.3673 2.48668 11.3542 2.38601 11.3568 2.28572C11.3603 2.15212 11.3059 2.09876 11.1399 2.10178C10.6703 2.11011 10.1999 2.10178 9.72982 2.10178C7.43325 2.10027 5.13624 2.09875 2.83966 2.09875C1.98542 2.09875 1.13117 2.1014 0.276928 2.10405C0.15147 2.10405 0.0133802 2.10254 0.00771717 2.25582C0.000311678 2.46284 -0.00491615 2.67061 0.00728113 2.87726C0.0151222 3.01123 0.0948399 3.08844 0.275185 3.08579C0.86806 3.07784 1.46137 3.08125 2.05468 3.08163C3.84332 3.08238 5.63153 3.08465 7.42018 3.08503C8.56411 3.08503 9.7076 3.08692 10.8515 3.08163C11.3756 3.07898 11.3982 3.17851 11.3725 2.5866L11.373 2.58697Z" fill="#05705C"/>
<path d="M5.88637 1.82871C7.47389 1.82871 9.06098 1.82871 10.6485 1.82871C10.6485 1.83635 10.6485 1.84399 10.6485 1.85163C10.7783 1.85163 10.9081 1.85253 11.0375 1.85073C11.0648 1.85073 11.0917 1.83949 11.1191 1.8332C11.093 1.81568 11.0687 1.79231 11.0405 1.78198C10.2734 1.49979 9.50811 1.21221 8.73844 0.939003C7.96139 0.663553 7.16568 0.437082 6.40469 0.12164C5.97797 -0.0549531 5.61332 -0.0257454 5.20092 0.122539C4.05011 0.536388 2.88888 0.918332 1.73416 1.3205C1.35866 1.45126 0.990101 1.60314 0.619375 1.74828C0.581174 1.76311 0.549919 1.79636 0.515625 1.82107C0.559904 1.83006 0.604182 1.84713 0.648461 1.84668C1.15289 1.84219 1.65689 1.83006 2.16132 1.82916C3.40329 1.82646 4.64483 1.82826 5.88681 1.82871H5.88637Z" fill="#05705C"/>
<path d="M3.91692 8.64153C4.09825 8.6326 4.28089 8.64275 4.4631 8.64193C4.87657 8.64031 4.89847 8.62977 4.90109 8.25052C4.90942 7.11196 4.90985 5.97341 4.91029 4.83486C4.91029 4.60609 4.89146 4.37732 4.88927 4.14815C4.88795 4.02039 4.82839 3.96685 4.69129 3.96644C4.42937 3.96603 4.16701 3.9632 3.90509 3.95143C3.69354 3.9421 3.61338 4.01227 3.61733 4.21954C3.63047 4.90624 3.62214 5.59376 3.62214 6.28046C3.62959 6.28046 3.6366 6.28046 3.64404 6.28046C3.64404 6.98785 3.64842 7.69483 3.64141 8.40222C3.63966 8.59123 3.72639 8.65005 3.91692 8.64072V8.64153Z" fill="#05705C"/>
<path d="M1.06377 8.6392C1.31839 8.64043 1.57255 8.64287 1.82717 8.64165C2.00022 8.64083 2.06917 8.5712 2.06646 8.40342C2.05655 7.70664 2.06241 7.00946 2.06241 6.31269C2.06196 6.31269 2.06106 6.31269 2.06061 6.31269C2.06061 5.61591 2.0525 4.91873 2.06556 4.22196C2.06962 4.0106 1.97859 3.94626 1.76453 3.95277C1.54056 3.95929 1.31569 3.95277 1.09126 3.95074C0.834845 3.94829 0.787076 3.98291 0.781668 4.21666C0.773557 4.56851 0.773106 4.92036 0.773557 5.27221C0.774909 6.30047 0.781668 7.32914 0.778965 8.3574C0.778514 8.5431 0.855574 8.6388 1.06377 8.63961V8.6392Z" fill="#05705C"/>
<path d="M7.87617 4.19736C7.87617 4.03503 7.80121 3.96621 7.62467 3.96702C7.37405 3.96823 7.12255 3.96581 6.87238 3.95164C6.67854 3.94071 6.60269 4.01803 6.60713 4.18521C6.6089 4.25241 6.59959 4.31961 6.59959 4.38681C6.59915 5.03207 6.59959 5.67775 6.59959 6.32301C6.5987 6.32301 6.59826 6.32301 6.59737 6.32301C6.59737 7.00835 6.60269 7.6941 6.59382 8.37945C6.5916 8.56363 6.63951 8.65471 6.86307 8.64055C7.09816 8.62557 7.33502 8.62881 7.571 8.63447C7.79234 8.64014 7.88371 8.56242 7.88061 8.3507C7.87218 7.7864 7.8877 7.22209 7.88682 6.65738C7.88593 5.83724 7.8775 5.0171 7.87661 4.19655L7.87617 4.19736Z" fill="#05705C"/>
<path d="M10.5085 3.95841C10.2611 3.96287 10.0132 3.96287 9.76627 3.95151C9.54957 3.94178 9.45567 4.01075 9.45567 4.21565C9.45657 4.92893 9.43581 5.64221 9.43761 6.35549C9.43942 7.04159 9.46289 7.72768 9.46741 8.41419C9.46831 8.56187 9.5279 8.62273 9.68727 8.62395C9.93467 8.62598 10.1821 8.62557 10.4286 8.64059C10.6475 8.65397 10.7184 8.57121 10.7166 8.38173C10.7094 7.68833 10.7134 6.99533 10.7134 6.30193C10.7184 6.30193 10.7229 6.30193 10.7279 6.30193C10.7279 5.58865 10.7247 4.87496 10.7306 4.16168C10.7319 4.014 10.6719 3.95516 10.508 3.95841H10.5085Z" fill="#05705C"/>
<path d="M10.9875 3.54242C11.0055 3.36164 10.9145 3.33259 10.7389 3.33336C8.74908 3.34406 6.75886 3.35361 4.76908 3.35476C3.43344 3.35553 2.09737 3.34406 0.761736 3.3345C0.60792 3.33336 0.514776 3.3712 0.515631 3.52408C0.516485 3.67467 0.614756 3.69225 0.7549 3.69225C1.35094 3.69148 1.94698 3.69951 2.54301 3.7018C3.09718 3.70371 3.65092 3.70218 4.20509 3.70218C4.20509 3.70257 4.20509 3.70333 4.20509 3.70371C5.58986 3.70371 6.97464 3.70371 8.35941 3.70371C9.16908 3.70371 9.97875 3.69989 10.7889 3.70257C10.9222 3.70295 10.9747 3.6674 10.9871 3.54242H10.9875Z" fill="#05705C"/>
</svg>
