<svg width="175" height="24" viewBox="0 0 175 24" fill="none" xmlns="http://www.w3.org/2000/svg">
<path d="M120.953 9.42542C120.953 3.27978 125.016 0.00219727 128.805 0.00219727H130.169C133.996 0.00219727 136.683 3.02877 137.037 6.88501H133.838C133.629 4.59558 132.147 2.85835 130.207 2.85835H128.819C126.564 2.85835 124.308 5.2931 124.308 9.42542C124.308 13.5578 126.486 15.9925 128.779 15.9925H130.129C132.081 15.9925 133.577 14.176 133.852 11.9658H137.05C136.749 15.8882 133.498 18.8486 130.129 18.8486H128.779C124.86 18.8486 120.953 15.5592 120.953 9.42542Z" fill="black"/>
<path d="M28.6166 9.56464V9.5752C28.6166 9.67825 28.5759 9.776 28.5034 9.84867L19.3554 19.0328C19.3186 19.0698 19.2699 19.0896 19.2185 19.0896H19.1606C19.054 19.0896 18.9672 19.0024 18.9672 18.8954V9.57389C18.9672 9.67692 18.9264 9.7747 18.8541 9.84735L9.76127 18.9759C9.68888 19.0487 9.59018 19.0896 9.48886 19.0896H9.47835C9.3757 19.0896 9.27832 19.0487 9.20595 18.9759L0.113167 9.84867C0.0407925 9.776 0 9.67692 0 9.5752V9.56464C0 9.46158 0.0407925 9.36383 0.113167 9.29119L9.20463 0.16254C9.27702 0.0898817 9.3757 0.0489284 9.47702 0.0489284H9.48756C9.59018 0.0489284 9.68756 0.0898817 9.75995 0.16254L18.8527 9.29119C18.9251 9.36383 18.9659 9.4629 18.9659 9.56464V0.241805C18.9659 0.134799 19.0527 0.0476074 19.1594 0.0476074H19.2172C19.2686 0.0476074 19.3172 0.0674233 19.3541 0.104414L28.5021 9.28854C28.5745 9.36118 28.6153 9.46028 28.6153 9.56199L28.6166 9.56464Z" fill="black"/>
<path d="M50.8429 2.94893C50.3798 2.08892 49.7113 1.41913 48.8375 0.935619C47.9637 0.453426 46.9372 0.21167 45.7583 0.21167H38.1577V18.6301H41.4606V11.565H45.7596C46.9385 11.565 47.965 11.3232 48.8388 10.841C49.7124 10.3588 50.3809 9.69037 50.8442 8.83434C51.3074 7.97961 51.5389 6.99937 51.5389 5.89363C51.5389 4.78788 51.3074 3.80632 50.8442 2.94631L50.8429 2.94893ZM47.894 7.32301C47.6927 7.7484 47.3846 8.08661 46.9702 8.33629C46.5557 8.58596 46.0334 8.71146 45.4044 8.71146H41.4592V3.06651H45.4044C46.3306 3.06651 47.0269 3.33204 47.4938 3.86313C47.9609 4.39419 48.1952 5.07189 48.1952 5.89626C48.1952 6.42203 48.0953 6.89897 47.894 7.32434V7.32301Z" fill="black"/>
<path d="M75.648 5.36914L70.1174 20.7359C69.7159 21.8588 69.1871 22.6832 68.5315 23.209C67.8763 23.7347 67.0592 23.9977 66.0814 23.9977H64.3984V21.4321H65.8447C66.2987 21.4321 66.675 21.2723 66.9709 20.9525C67.2684 20.6328 67.7921 19.2748 67.9237 18.8415L63.0273 5.36914H66.2249L69.3962 14.8809C69.6053 14.1001 72.5056 5.36914 72.5056 5.36914H75.6467H75.648Z" fill="black"/>
<path d="M85.3166 12.077C85.8759 12.6424 86.1548 13.5091 86.1548 14.6755C86.1548 15.4827 85.9429 16.2014 85.5192 16.8329C85.0955 17.4644 84.5257 17.9584 83.8086 18.3124C83.0929 18.6679 82.3149 18.8448 81.4754 18.8448H80.4006C79.536 18.8448 78.7292 18.6784 77.9831 18.3441C77.2358 18.0112 76.6292 17.5501 76.2079 16.8975C75.7738 16.2251 75.5697 15.3282 75.5527 14.5025H78.5924C78.6452 15.0374 78.7386 15.7007 79.1097 16.0151C79.5281 16.3692 79.9464 16.4629 80.4269 16.4629H81.3177C81.8073 16.4629 82.2176 16.3401 82.5492 16.0944C82.881 15.8487 83.0467 15.4669 83.0467 14.9503C83.0467 14.5117 82.9205 14.1722 82.6665 13.9304C82.4125 13.69 82.0243 13.5209 81.5006 13.4245L78.9715 12.9251C77.9147 12.7151 77.1082 12.287 76.5541 11.6423C75.9988 10.9976 75.7224 10.1799 75.7224 9.18909C75.7224 8.41759 75.9278 7.72402 76.3384 7.11105C76.7488 6.49676 77.299 6.0238 77.9896 5.68956C78.6791 5.35665 79.4228 5.19019 80.2176 5.19019H81.2269C82.031 5.19019 82.777 5.35271 83.4679 5.67635C84.1574 6.00133 84.7165 6.45974 85.1456 7.05159C85.5732 7.64344 85.7971 8.72012 85.814 9.49163H82.8519C82.8165 9.03583 82.7389 8.38721 82.3611 8.02522C81.9993 7.6791 81.6111 7.55758 81.1742 7.55758H80.3228C79.8767 7.55758 79.5108 7.6778 79.2215 7.91954C78.9332 8.16131 78.7886 8.49157 78.7886 8.91298C78.7886 9.25516 78.9083 9.55371 79.149 9.80737C79.3885 10.0623 79.7414 10.2367 80.2044 10.3331L82.7862 10.8721C83.9126 11.1087 84.7562 11.5103 85.3153 12.0756L85.3166 12.077Z" fill="black"/>
<path d="M160.667 12.077C161.226 12.6424 161.504 13.5091 161.504 14.6755C161.504 15.4827 161.293 16.2014 160.869 16.8329C160.446 17.4644 159.876 17.9584 159.158 18.3124C158.442 18.6679 157.665 18.8448 156.825 18.8448H155.751C154.886 18.8448 154.079 18.6784 153.333 18.3441C152.585 18.0112 151.98 17.5501 151.559 16.8975C151.124 16.2251 150.92 15.3282 150.903 14.5025H153.942C153.995 15.0374 154.089 15.7007 154.459 16.0151C154.879 16.3692 155.297 16.4629 155.776 16.4629H156.668C157.157 16.4629 157.568 16.3401 157.9 16.0944C158.231 15.8487 158.397 15.4669 158.397 14.9503C158.397 14.5117 158.27 14.1722 158.017 13.9304C157.763 13.69 157.375 13.5209 156.851 13.4245L154.322 12.9251C153.265 12.7151 152.459 12.287 151.904 11.6423C151.349 10.9976 151.072 10.1799 151.072 9.18909C151.072 8.41759 151.278 7.72402 151.689 7.11105C152.099 6.49676 152.649 6.0238 153.34 5.68956C154.029 5.35665 154.773 5.19019 155.568 5.19019H156.577C157.381 5.19019 158.127 5.35271 158.817 5.67635C159.508 6.00133 160.066 6.45974 160.495 7.05159C160.923 7.64344 161.147 8.72012 161.164 9.49163H158.202C158.167 9.03583 158.09 8.38721 157.711 8.02522C157.349 7.6791 156.961 7.55758 156.524 7.55758H155.673C155.227 7.55758 154.861 7.6778 154.572 7.91954C154.283 8.16131 154.138 8.49157 154.138 8.91298C154.138 9.25516 154.259 9.55371 154.499 9.80737C154.739 10.0623 155.091 10.2367 155.555 10.3331L158.136 10.8721C159.263 11.1087 160.106 11.5103 160.665 12.0756L160.667 12.077Z" fill="black"/>
<path d="M98.757 15.9806C98.5595 15.941 98.4095 15.8498 98.3045 15.7044C98.199 15.5604 98.1464 15.3386 98.1464 15.04V10.1058C98.1464 9.18497 97.9491 8.34478 97.5567 7.58646C97.1634 6.82817 96.5962 6.2337 95.8529 5.80434C95.1093 5.37498 94.2368 5.15967 93.2314 5.15967H92.2749C91.3841 5.15967 90.5537 5.34593 89.7854 5.71848C89.0169 6.09101 88.3878 6.61943 87.8983 7.30375C87.4087 7.98806 87.2074 8.6103 87.1377 9.4875H90.2169C90.2603 8.8732 90.3998 8.52311 90.7932 8.1717C91.1865 7.82163 91.6972 7.67235 92.2736 7.67235H93.2303C93.5619 7.67235 93.8724 7.77142 94.1606 7.96827C94.4487 8.16642 94.6765 8.44253 94.8421 8.79658C95.008 9.15194 95.0909 9.54959 95.0909 9.98685V10.2511L91.5919 10.7769C90.1852 11.0054 89.0601 11.4652 88.218 12.1587C87.3746 12.8523 86.9534 13.7995 86.9534 15.0003C86.9534 15.7732 87.135 16.4482 87.497 17.0269C87.8588 17.6055 88.3733 18.0533 89.0366 18.3691C89.701 18.6848 90.4695 18.8433 91.3433 18.8433C92.2777 18.8433 93.1039 18.6597 93.8197 18.2912C94.5357 17.9226 95.0648 17.4193 95.4055 16.7785C95.4395 17.4193 95.6476 17.8882 96.0277 18.1867C96.4081 18.4853 96.9253 18.6346 97.5805 18.6346H99.6387V16.0427C99.2452 16.0427 98.9505 16.0229 98.7543 15.9832L98.757 15.9806ZM95.0937 13.1324C95.0937 13.781 94.9608 14.3557 94.6935 14.8563C94.4266 15.357 94.0515 15.7441 93.5671 16.0202C93.0815 16.2964 92.5248 16.435 91.8959 16.435C91.363 16.435 90.9261 16.2911 90.5854 16.0004C90.2445 15.7111 90.0747 15.3333 90.0747 14.8682C90.0747 14.2896 90.2641 13.8669 90.6445 13.5987C91.0247 13.3318 91.6117 13.1271 92.4065 12.987L95.0937 12.4876V13.1324Z" fill="black"/>
<path d="M63.628 15.9806C63.4307 15.941 63.2808 15.8498 63.1755 15.7044C63.07 15.5604 63.0176 15.3386 63.0176 15.04V10.1058C63.0176 9.18497 62.8201 8.34478 62.4281 7.58646C62.0346 6.82817 61.4675 6.2337 60.7239 5.80434C59.9803 5.37498 59.1082 5.15967 58.1027 5.15967H57.1459C56.2551 5.15967 55.4248 5.34593 54.6564 5.71848C53.8879 6.09101 53.2589 6.61943 52.7693 7.30375C52.2799 7.98806 52.0786 8.6103 52.0087 9.4875H55.0879C55.1313 8.8732 55.2708 8.52311 55.6644 8.1717C56.0579 7.82163 56.5683 7.67235 57.1446 7.67235H58.1013C58.4329 7.67235 58.7436 7.77142 59.0316 7.96827C59.32 8.16642 59.5475 8.44253 59.7134 8.79658C59.879 9.15194 59.9619 9.54959 59.9619 9.98685V10.2511L56.4631 10.7769C55.0566 11.0054 53.9314 11.4652 53.0892 12.1587C52.2456 12.8523 51.8247 13.7995 51.8247 15.0003C51.8247 15.7732 52.0063 16.4482 52.3681 17.0269C52.7298 17.6055 53.2443 18.0533 53.9077 18.3691C54.572 18.6848 55.3408 18.8433 56.2143 18.8433C57.1487 18.8433 57.9749 18.6597 58.6909 18.2912C59.4067 17.9226 59.9358 17.4193 60.2765 16.7785C60.3108 17.4193 60.5185 17.8882 60.899 18.1867C61.2792 18.4853 61.7964 18.6346 62.4518 18.6346H64.5097V16.0427C64.1162 16.0427 63.8215 16.0229 63.6256 15.9832L63.628 15.9806ZM59.9647 13.1324C59.9647 13.781 59.8318 14.3557 59.5647 14.8563C59.2976 15.357 58.9225 15.7441 58.4383 16.0202C57.9528 16.2964 57.3962 16.435 56.7671 16.435C56.234 16.435 55.7971 16.2911 55.4564 16.0004C55.1157 15.7111 54.9457 15.3333 54.9457 14.8682C54.9457 14.2896 55.1354 13.8669 55.5155 13.5987C55.8961 13.3318 56.4829 13.1271 57.2775 12.987L59.9647 12.4876V13.1324Z" fill="black"/>
<path d="M149.672 15.9806C149.475 15.941 149.325 15.8498 149.22 15.7044C149.114 15.5604 149.062 15.3386 149.062 15.04V10.1058C149.062 9.18497 148.865 8.34478 148.472 7.58646C148.08 6.82817 147.512 6.2337 146.768 5.80434C146.025 5.37498 145.152 5.15967 144.147 5.15967H143.191C142.3 5.15967 141.469 5.34593 140.7 5.71848C139.933 6.09101 139.303 6.61943 138.814 7.30375C138.324 7.98806 138.123 8.6103 138.053 9.4875H141.133C141.176 8.8732 141.316 8.52311 141.709 8.1717C142.102 7.82163 142.613 7.67235 143.189 7.67235H144.146C144.477 7.67235 144.788 7.77142 145.076 7.96827C145.364 8.16642 145.592 8.44253 145.758 8.79658C145.923 9.15194 146.007 9.54959 146.007 9.98685V10.2511L142.507 10.7769C141.101 11.0054 139.976 11.4652 139.134 12.1587C138.29 12.8523 137.869 13.7995 137.869 15.0003C137.869 15.7732 138.051 16.4482 138.413 17.0269C138.774 17.6055 139.288 18.0533 139.953 18.3691C140.617 18.6848 141.385 18.8433 142.259 18.8433C143.193 18.8433 144.019 18.6597 144.735 18.2912C145.451 17.9226 145.981 17.4193 146.321 16.7785C146.356 17.4193 146.563 17.8882 146.943 18.1867C147.324 18.4853 147.84 18.6346 148.497 18.6346H150.555V16.0427C150.161 16.0427 149.866 16.0229 149.67 15.9832L149.672 15.9806ZM146.009 13.1324C146.009 13.781 145.876 14.3557 145.609 14.8563C145.342 15.357 144.967 15.7441 144.483 16.0202C143.997 16.2964 143.44 16.435 142.812 16.435C142.279 16.435 141.842 16.2911 141.501 16.0004C141.16 15.7111 140.99 15.3333 140.99 14.8682C140.99 14.2896 141.18 13.8669 141.561 13.5987C141.94 13.3318 142.527 13.1271 143.322 12.987L146.009 12.4876V13.1324Z" fill="black"/>
<path d="M108.024 7.93468H104.433V18.6314H101.354V7.93468H98.7852V5.36915H101.354V4.11941C101.354 2.8472 101.672 1.87887 102.31 1.21172C102.949 0.545902 103.844 0.21167 104.997 0.21167H108.025V2.77719H105.929C105.423 2.77719 105.046 2.91062 104.803 3.17882C104.558 3.44699 104.435 3.85652 104.435 4.40874V5.36915H108.027V7.93468H108.024Z" fill="black"/>
<path d="M120.144 11.5272C120.144 10.37 119.904 9.30386 119.424 8.33023C118.943 7.3566 118.292 6.5851 117.471 6.0144C116.65 5.445 115.724 5.15967 114.693 5.15967H113.684C112.705 5.15967 111.777 5.43843 110.899 5.99459C110.022 6.55207 109.311 7.35265 108.77 8.3963C108.228 9.43995 107.958 10.6289 107.958 11.9618C107.958 13.2949 108.21 14.4733 108.712 15.5208C109.215 16.5685 109.91 17.3849 110.795 17.9675C111.682 18.5514 112.663 18.8421 113.738 18.8421H114.708C115.625 18.8421 116.469 18.6399 117.243 18.237C118.017 17.834 118.651 17.2792 119.151 16.5725C119.647 15.8669 119.941 15.0796 120.028 14.2103H117.092C116.979 14.789 116.705 15.2738 116.274 15.6635C115.84 16.0546 115.328 16.2487 114.734 16.2487H113.763C113.257 16.2487 112.797 16.0718 112.381 15.7164C111.967 15.361 111.636 14.8523 111.392 14.1906C111.223 13.7335 111.114 13.2261 111.061 12.6714H120.094C120.103 12.5788 120.146 11.8337 120.146 11.5272H120.144ZM111.177 10.3951C111.239 10.1177 111.319 9.85344 111.417 9.6064C111.68 8.94851 112.023 8.44914 112.446 8.10698C112.871 7.76481 113.315 7.5944 113.777 7.5944H114.694C115.105 7.5944 115.49 7.71727 115.847 7.96299C116.204 8.20871 116.492 8.54823 116.705 8.98284C116.918 9.41748 117.034 9.8891 117.053 10.3977H111.177V10.3951Z" fill="black"/>
<path d="M162.481 0.21167H165.559V7.26886C166.218 6.0931 167.599 5.16835 168.941 5.16835H170.086C172.376 5.16835 174.271 7.3349 174.271 10.2545V18.6301H171.191V10.7301C171.191 9.1712 170.376 7.9294 169.086 7.9294H168.178C166.652 7.9294 165.559 9.58074 165.559 11.5756V18.6301H162.481V0.21167Z" fill="black"/>
</svg>
